<svg id="svg" version="1.1" xmlns="http://www.w3.org/2000/svg" xmlns:xlink="http://www.w3.org/1999/xlink" width="400" height="285.7142857142857" viewBox="0, 0, 400,285.7142857142857"><g id="svgg"><path id="path0" d="" stroke="none" fill="#1c14e3" fill-rule="evenodd"></path><path id="path1" d="M104.120 122.238 C 103.378 124.802,99.563 144.264,99.480 145.910 C 99.137 152.698,103.602 156.571,111.771 156.571 C 119.784 156.571,124.411 152.213,126.548 142.652 C 127.046 140.423,130.857 122.152,130.857 121.993 C 130.857 121.944,129.794 121.905,128.495 121.905 L 126.133 121.905 125.924 122.810 C 125.809 123.307,124.856 127.829,123.807 132.857 C 121.608 143.391,121.192 145.035,120.184 147.196 C 116.270 155.582,102.883 153.913,104.194 145.202 C 104.377 143.991,108.513 123.832,108.887 122.333 C 109.035 121.741,104.291 121.646,104.120 122.238 M233.333 122.178 C 233.333 122.415,239.453 154.599,239.719 155.762 C 239.814 156.180,239.877 156.190,242.337 156.184 L 244.857 156.178 253.504 140.382 C 258.260 131.694,262.485 123.982,262.892 123.245 L 263.632 121.905 261.102 121.913 L 258.571 121.921 252.253 133.579 C 248.778 139.992,245.310 146.481,244.546 148.000 C 243.493 150.096,243.144 150.647,243.098 150.286 C 242.790 147.811,241.915 142.931,240.078 133.429 C 238.883 127.248,237.905 122.126,237.905 122.048 C 237.905 121.969,236.876 121.905,235.619 121.905 C 233.759 121.905,233.333 121.956,233.333 122.178 M133.928 142.429 C 132.432 149.526,131.162 155.526,131.107 155.762 L 131.006 156.190 139.869 156.190 L 148.731 156.190 149.019 154.905 C 149.178 154.198,149.365 153.298,149.437 152.905 L 149.566 152.190 142.961 152.190 C 136.758 152.190,136.362 152.170,136.458 151.857 C 136.594 151.419,141.143 129.882,141.143 129.680 C 141.143 129.594,140.132 129.524,138.896 129.524 L 136.649 129.524 133.928 142.429 M152.301 131.190 C 152.123 132.107,151.934 133.007,151.881 133.190 C 151.790 133.501,152.089 133.524,156.294 133.524 L 160.803 133.524 160.695 133.954 C 160.475 134.830,156.000 155.881,156.000 156.039 C 156.000 156.129,157.005 156.178,158.233 156.149 L 160.467 156.095 162.860 144.857 L 165.254 133.619 169.810 133.524 L 174.365 133.429 174.698 131.810 C 174.881 130.919,175.034 130.040,175.039 129.857 C 175.047 129.543,174.390 129.524,163.836 129.524 L 152.624 129.524 152.301 131.190 M176.772 142.429 C 175.263 149.526,173.991 155.526,173.945 155.762 C 173.861 156.187,173.878 156.190,176.135 156.190 L 178.409 156.190 179.633 150.382 L 180.857 144.573 183.619 144.577 C 188.183 144.582,188.419 144.784,191.686 151.476 L 193.988 156.190 196.518 156.190 C 197.944 156.190,199.048 156.113,199.048 156.014 C 199.048 155.681,194.947 147.524,194.349 146.667 C 193.629 145.635,192.681 144.724,191.905 144.316 L 191.333 144.015 191.827 144.008 C 193.600 143.980,197.389 142.484,198.802 141.254 C 201.462 138.936,201.708 133.778,199.263 131.569 C 197.203 129.708,196.095 129.524,186.965 129.524 L 179.515 129.524 176.772 142.429 M214.969 129.952 C 213.847 131.682,199.238 155.897,199.238 156.026 C 199.238 156.117,200.336 156.190,201.677 156.190 L 204.116 156.190 206.267 152.381 L 208.418 148.571 214.098 148.571 L 219.779 148.571 219.888 149.095 C 219.949 149.383,220.214 150.905,220.479 152.476 C 220.744 154.048,221.003 155.526,221.055 155.762 C 221.147 156.179,221.216 156.190,223.548 156.190 C 225.387 156.190,225.925 156.135,225.855 155.952 C 225.806 155.821,224.533 149.822,223.026 142.620 L 220.286 129.525 217.766 129.525 C 215.362 129.524,215.234 129.543,214.969 129.952 M266.476 129.671 C 266.476 129.753,265.233 135.686,263.714 142.857 C 262.195 150.028,260.952 155.962,260.952 156.043 C 260.952 156.124,261.965 156.190,263.202 156.190 L 265.452 156.190 268.185 143.286 C 269.689 136.188,270.958 130.188,271.006 129.952 C 271.091 129.527,271.076 129.524,268.784 129.524 C 267.515 129.524,266.476 129.590,266.476 129.671 M277.997 129.762 C 277.913 129.994,272.381 155.998,272.381 156.162 C 272.381 156.411,285.917 156.012,287.400 155.720 C 295.196 154.184,299.215 149.230,299.304 141.048 C 299.372 134.805,296.813 131.205,291.380 129.903 C 289.437 129.437,278.158 129.318,277.997 129.762 M194.517 133.490 C 197.788 135.101,196.367 139.614,192.259 140.655 C 190.452 141.114,181.716 141.344,181.712 140.933 C 181.710 140.787,182.075 138.926,182.521 136.799 L 183.333 132.932 188.476 132.990 C 193.411 133.045,193.655 133.066,194.517 133.490 M289.727 133.822 C 296.580 135.800,296.406 147.669,289.477 150.960 C 286.951 152.160,277.485 153.064,277.777 152.079 C 277.836 151.878,278.702 147.814,279.702 143.048 C 280.702 138.281,281.566 134.188,281.621 133.952 C 281.752 133.392,287.894 133.293,289.727 133.822 M217.330 134.647 C 217.332 134.898,217.683 137.242,218.110 139.855 C 218.537 142.467,218.850 144.642,218.805 144.687 C 218.759 144.733,216.965 144.747,214.818 144.718 L 210.914 144.667 213.371 140.476 C 214.722 138.171,216.102 135.724,216.438 135.038 C 217.031 133.823,217.324 133.695,217.330 134.647 " stroke="none" fill="#1c04ac" fill-rule="evenodd"></path><path id="path2" d="M69.619 115.572 C 67.233 115.857,63.565 117.296,61.058 118.929 C 58.653 120.497,54.667 124.602,54.667 125.511 C 54.667 125.623,54.599 125.714,54.516 125.714 C 53.658 125.714,50.763 134.255,51.473 134.694 C 51.663 134.811,51.663 134.889,51.475 135.078 C 51.317 135.235,51.238 135.960,51.238 137.238 C 51.238 138.516,51.317 139.241,51.475 139.398 C 51.663 139.587,51.663 139.665,51.473 139.782 C 51.056 140.040,51.704 142.798,52.859 145.679 C 54.640 150.122,58.424 154.257,62.872 156.620 C 65.564 158.050,69.696 159.244,70.416 158.799 C 70.539 158.723,70.694 158.748,70.760 158.854 C 70.925 159.121,75.238 159.113,75.238 158.846 C 75.238 158.735,75.342 158.708,75.469 158.787 C 76.507 159.429,81.865 157.615,85.035 155.548 C 87.434 153.984,91.194 150.129,91.468 148.952 C 91.499 148.819,91.720 148.492,91.959 148.225 C 92.199 147.958,92.350 147.622,92.295 147.479 C 92.240 147.335,92.270 147.265,92.361 147.321 C 92.495 147.404,93.016 146.479,93.052 146.095 C 93.057 146.043,93.168 145.807,93.299 145.571 C 93.430 145.336,93.489 145.143,93.431 145.143 C 93.372 145.143,93.465 144.929,93.637 144.667 C 93.884 144.289,93.895 144.190,93.689 144.188 C 93.471 144.185,93.471 144.158,93.691 144.018 C 93.835 143.927,93.895 143.757,93.823 143.640 C 93.751 143.524,93.779 143.429,93.886 143.429 C 94.106 143.429,94.484 142.171,94.591 141.081 C 94.630 140.680,94.717 140.263,94.784 140.155 C 94.851 140.046,94.789 139.885,94.645 139.796 C 94.437 139.668,94.432 139.587,94.621 139.398 C 94.947 139.072,94.947 135.404,94.621 135.078 C 94.432 134.889,94.437 134.808,94.645 134.680 C 94.789 134.591,94.852 134.431,94.786 134.324 C 94.719 134.217,94.627 133.752,94.580 133.290 C 94.534 132.828,94.356 132.039,94.185 131.536 C 94.014 131.032,93.846 130.476,93.812 130.300 C 93.778 130.123,93.600 129.641,93.416 129.228 C 93.232 128.814,93.073 128.433,93.063 128.381 C 92.964 127.899,92.492 127.074,92.361 127.155 C 92.270 127.212,92.240 127.141,92.295 126.997 C 92.350 126.854,92.199 126.519,91.959 126.251 C 91.720 125.984,91.499 125.657,91.468 125.524 C 91.272 124.681,87.823 120.762,87.277 120.762 C 87.116 120.762,87.039 120.708,87.105 120.641 C 87.412 120.334,83.799 117.994,81.582 117.065 C 79.052 116.004,76.052 115.329,75.469 115.689 C 75.342 115.768,75.238 115.738,75.238 115.623 C 75.238 115.426,71.151 115.389,69.619 115.572 M75.714 117.982 C 76.549 118.082,79.298 118.770,79.905 119.032 C 82.561 120.177,84.714 121.563,86.735 123.429 C 87.217 123.874,88.521 125.333,88.437 125.333 C 88.363 125.333,89.323 126.669,89.532 126.857 C 89.590 126.910,89.868 127.445,90.150 128.048 C 90.431 128.650,90.730 129.143,90.813 129.143 C 90.896 129.143,90.984 129.374,91.007 129.656 C 91.030 129.938,91.156 130.237,91.287 130.320 C 91.417 130.403,91.449 130.472,91.358 130.473 C 91.266 130.475,91.298 130.605,91.429 130.762 C 91.559 130.919,91.617 131.048,91.557 131.048 C 91.498 131.048,91.581 131.492,91.742 132.034 C 92.320 133.982,92.386 134.502,92.396 137.238 C 92.404 139.653,92.281 140.839,91.912 141.884 C 91.751 142.341,91.619 142.899,91.619 143.124 C 91.619 143.350,91.495 143.711,91.344 143.927 C 91.193 144.143,91.037 144.554,90.999 144.841 C 90.961 145.127,90.837 145.419,90.725 145.490 C 90.612 145.561,90.321 146.048,90.077 146.571 C 89.834 147.095,89.523 147.638,89.388 147.777 C 89.252 147.916,89.043 148.211,88.925 148.433 C 88.559 149.115,86.419 151.393,85.123 152.477 C 83.377 153.937,79.049 155.960,76.952 156.295 C 76.795 156.320,76.324 156.397,75.905 156.466 C 68.030 157.761,58.949 153.062,55.771 146.048 C 55.593 145.655,55.376 145.333,55.289 145.333 C 55.202 145.333,55.113 145.116,55.091 144.851 C 55.069 144.585,54.925 144.124,54.770 143.825 C 54.616 143.527,54.440 143.001,54.379 142.657 C 54.319 142.313,54.225 141.961,54.171 141.874 C 53.777 141.236,53.516 136.098,53.794 134.476 C 53.839 134.214,53.918 133.743,53.969 133.429 C 54.020 133.114,54.153 132.621,54.264 132.333 C 54.376 132.045,54.429 131.810,54.383 131.810 C 54.337 131.810,54.470 131.412,54.678 130.927 C 54.886 130.441,55.073 129.841,55.093 129.593 C 55.114 129.346,55.198 129.143,55.279 129.143 C 55.361 129.143,55.626 128.736,55.868 128.238 C 58.451 122.927,64.655 118.589,70.570 117.958 C 70.988 117.913,71.345 117.861,71.363 117.843 C 71.426 117.779,74.957 117.892,75.714 117.982 M67.154 128.804 C 66.897 129.171,66.857 130.296,66.857 137.238 C 66.857 146.688,66.886 146.815,68.804 145.747 C 69.764 145.212,71.968 143.946,72.638 143.545 C 72.968 143.347,73.624 142.972,74.095 142.711 C 75.107 142.153,77.778 140.602,80.571 138.952 C 83.690 137.110,83.856 137.353,76.667 133.247 C 74.362 131.930,72.348 130.772,72.190 130.674 C 68.750 128.521,67.641 128.109,67.154 128.804 " stroke="none" fill="#1c1ce4" fill-rule="evenodd"></path><path id="path3" d="" stroke="none" fill="#1c14b8" fill-rule="evenodd"></path><path id="path4" d="" stroke="none" fill="#1c04bc" fill-rule="evenodd"></path><path id="path5" d="" stroke="none" fill="#2004ac" fill-rule="evenodd"></path><path id="path6" d="" stroke="none" fill="#2004ac" fill-rule="evenodd"></path><path id="path7" d="" stroke="none" fill="#2004ac" fill-rule="evenodd"></path><path id="path8" d="" stroke="none" fill="#2004ac" fill-rule="evenodd"></path></g></svg>