<svg width="32" height="32" viewBox="0 0 32 32" fill="none" xmlns="http://www.w3.org/2000/svg">
<path d="M5.6 0H26.4C29.5 0 32 2.5 32 5.6V26.4C32 29.5 29.5 32 26.4 32H5.6C2.5 32 0 29.5 0 26.4V5.6C0 2.5 2.5 0 5.6 0Z" fill="#4489C8"/>
<path d="M4.7998 9.89998H8.5998C8.7998 9.89998 8.9998 9.99998 8.9998 10.1C9.3998 11.2 11.1998 15.5 12.7998 15.8C13.9998 15.8 13.5998 10.1 11.9998 10.1C11.5998 10.1 12.6998 9.39998 12.7998 9.39998C14.1998 8.99998 15.6998 8.99998 17.0998 9.39998C17.8998 9.69998 17.9998 10.6 17.9998 11.4C17.9998 12.2 17.0998 15.4 18.2998 15.7C19.7998 16.2 21.6998 11.5 22.1998 10.3C22.2998 10.1 22.3998 9.99998 22.5998 9.99998H26.8998C27.0998 9.99998 27.2998 10.2 27.2998 10.4C27.2998 10.5 27.2998 10.5 27.2998 10.6C26.3998 12.6 25.3998 14.5 24.0998 16.4C23.8998 16.7 23.8998 17.1 24.1998 17.4C25.4998 18.8 28.9998 22.6 26.9998 22.6H22.6998C22.4998 22.6 22.2998 22.5 22.0998 22.3C21.3998 21.6 19.4998 19.5 18.5998 19.7C17.8998 19.8 17.7998 21.1 17.7998 21.9C17.7998 22.3 17.4998 22.7 17.0998 22.7C16.2998 22.7 15.2998 22.8 15.1998 22.8C12.0998 22.6 10.2998 20.6 8.5998 18.3C6.7998 15.9 5.3998 13.2 4.3998 10.4C4.2998 10.2 4.3998 9.99998 4.6998 9.89998H4.7998Z" fill="white"/>
</svg>
