<svg width="694" height="492" viewBox="0 0 694 492" fill="none" xmlns="http://www.w3.org/2000/svg">
<g filter="url(#filter0_dd_2015_344)">
<g clip-path="url(#clip0_2015_344)">
<rect x="281" y="61" width="309" height="277" rx="8" fill="white"/>
<rect opacity="0.25" x="256.547" y="50.9879" width="342.345" height="34.4859" fill="#7E879D"/>
<ellipse opacity="0.25" cx="299.896" cy="74.3494" rx="5.55755" ry="5.56225" fill="#7E879D"/>
<ellipse opacity="0.25" cx="315.457" cy="74.3494" rx="5.55755" ry="5.56225" fill="#7E879D"/>
<ellipse opacity="0.25" cx="331.018" cy="74.3494" rx="5.55755" ry="5.56225" fill="#7E879D"/>
<rect x="292.115" y="97.7108" width="67.8022" height="228.052" rx="4" fill="#E6F0FC"/>
<rect x="299.896" y="105.498" width="53.3525" height="9" rx="3" fill="#C4DCF8"/>
<rect x="299.896" y="122.498" width="53.3525" height="9" rx="3" fill="#C4DCF8"/>
<rect x="299.896" y="139.498" width="53.3525" height="9" rx="3" fill="#C4DCF8"/>
<rect x="299.896" y="156.498" width="53.3525" height="9" rx="3" fill="#C4DCF8"/>
<path d="M373.815 107.823V102.063H374.683L376.675 106.143L378.667 102.063H379.535V107.823H378.635V104.131L376.867 107.823H376.483L374.719 104.131V107.823H373.815Z" fill="#4E5567"/>
<path d="M381.227 109.743L382.059 107.459L382.075 108.131L380.191 103.503H381.195L382.531 106.927H382.275L383.575 103.503H384.539L382.131 109.743H381.227Z" fill="#4E5567"/>
<path d="M387.113 107.823V103.435C387.113 103.326 387.117 103.206 387.125 103.075C387.133 102.942 387.156 102.81 387.193 102.679C387.231 102.549 387.299 102.43 387.397 102.323C387.52 102.187 387.652 102.094 387.793 102.043C387.937 101.99 388.079 101.961 388.217 101.955C388.356 101.947 388.477 101.943 388.581 101.943H389.121V102.727H388.621C388.437 102.727 388.3 102.774 388.209 102.867C388.121 102.958 388.077 103.078 388.077 103.227V107.823H387.113ZM386.417 104.259V103.503H389.121V104.259H386.417ZM389.961 102.847V101.963H390.925V102.847H389.961ZM389.961 107.823V103.503H390.925V107.823H389.961Z" fill="#4E5567"/>
<path d="M392.208 107.823V101.943H393.172V107.823H392.208Z" fill="#4E5567"/>
<path d="M396.334 107.943C395.897 107.943 395.513 107.849 395.182 107.659C394.851 107.47 394.593 107.207 394.406 106.871C394.222 106.535 394.13 106.149 394.13 105.711C394.13 105.239 394.221 104.83 394.402 104.483C394.583 104.134 394.835 103.863 395.158 103.671C395.481 103.479 395.854 103.383 396.278 103.383C396.726 103.383 397.106 103.489 397.418 103.699C397.733 103.907 397.966 104.202 398.118 104.583C398.27 104.965 398.327 105.414 398.29 105.931H397.334V105.579C397.331 105.11 397.249 104.767 397.086 104.551C396.923 104.335 396.667 104.227 396.318 104.227C395.923 104.227 395.63 104.35 395.438 104.595C395.246 104.838 395.15 105.194 395.15 105.663C395.15 106.101 395.246 106.439 395.438 106.679C395.63 106.919 395.91 107.039 396.278 107.039C396.515 107.039 396.719 106.987 396.89 106.883C397.063 106.777 397.197 106.623 397.29 106.423L398.242 106.711C398.077 107.101 397.821 107.403 397.474 107.619C397.13 107.835 396.75 107.943 396.334 107.943ZM394.846 105.931V105.203H397.818V105.931H394.846Z" fill="#4E5567"/>
<path d="M400.851 107.943C400.317 107.943 399.884 107.823 399.551 107.583C399.217 107.343 399.015 107.006 398.943 106.571L399.927 106.419C399.977 106.633 400.089 106.801 400.263 106.923C400.436 107.046 400.655 107.107 400.919 107.107C401.151 107.107 401.329 107.062 401.455 106.971C401.583 106.878 401.647 106.751 401.647 106.591C401.647 106.493 401.623 106.414 401.575 106.355C401.529 106.294 401.428 106.235 401.271 106.179C401.113 106.123 400.872 106.053 400.547 105.967C400.184 105.871 399.896 105.769 399.683 105.659C399.469 105.547 399.316 105.415 399.223 105.263C399.129 105.111 399.083 104.927 399.083 104.711C399.083 104.442 399.153 104.207 399.295 104.007C399.436 103.807 399.633 103.654 399.887 103.547C400.14 103.438 400.439 103.383 400.783 103.383C401.119 103.383 401.416 103.435 401.675 103.539C401.936 103.643 402.147 103.791 402.307 103.983C402.467 104.175 402.565 104.401 402.603 104.659L401.619 104.835C401.595 104.651 401.511 104.506 401.367 104.399C401.225 104.293 401.036 104.233 400.799 104.219C400.572 104.206 400.389 104.241 400.251 104.323C400.112 104.403 400.043 104.517 400.043 104.663C400.043 104.746 400.071 104.817 400.127 104.875C400.183 104.934 400.295 104.993 400.463 105.051C400.633 105.11 400.887 105.182 401.223 105.267C401.567 105.355 401.841 105.457 402.047 105.571C402.255 105.683 402.404 105.818 402.495 105.975C402.588 106.133 402.635 106.323 402.635 106.547C402.635 106.982 402.476 107.323 402.159 107.571C401.844 107.819 401.408 107.943 400.851 107.943Z" fill="#4E5567"/>
<g clip-path="url(#clip1_2015_344)">
<path d="M379.055 224.98C377.555 224.98 376.255 226.28 376.255 227.78V250.18C376.255 251.68 377.555 252.98 379.055 252.98H395.855C397.355 252.98 398.655 251.68 398.655 250.18V233.48C398.655 233.38 398.655 233.38 398.555 233.28L390.355 225.08C390.255 224.98 390.255 224.98 390.155 224.98H379.055ZM388.855 234.48V227.78C388.855 227.58 389.155 227.38 389.355 227.58L396.055 234.28C396.255 234.48 396.155 234.78 395.855 234.78H389.155C388.955 234.78 388.855 234.68 388.855 234.48Z" fill="#3586FF"/>
</g>
<g clip-path="url(#clip2_2015_344)">
<path d="M417.455 224.98C415.955 224.98 414.655 226.28 414.655 227.78V250.18C414.655 251.68 415.955 252.98 417.455 252.98H434.255C435.755 252.98 437.055 251.68 437.055 250.18V233.48C437.055 233.38 437.055 233.38 436.955 233.28L428.755 225.08C428.655 224.98 428.655 224.98 428.555 224.98H417.455ZM427.255 234.48V227.78C427.255 227.58 427.555 227.38 427.755 227.58L434.455 234.28C434.655 234.48 434.555 234.78 434.255 234.78H427.555C427.355 234.78 427.255 234.68 427.255 234.48Z" fill="#3586FF"/>
</g>
<g clip-path="url(#clip3_2015_344)">
<path d="M455.855 224.98C454.355 224.98 453.055 226.28 453.055 227.78V250.18C453.055 251.68 454.355 252.98 455.855 252.98H472.655C474.155 252.98 475.455 251.68 475.455 250.18V233.48C475.455 233.38 475.455 233.38 475.355 233.28L467.155 225.08C467.055 224.98 467.055 224.98 466.955 224.98H455.855ZM465.655 234.48V227.78C465.655 227.58 465.955 227.38 466.155 227.58L472.855 234.28C473.055 234.48 472.955 234.78 472.655 234.78H465.955C465.755 234.78 465.655 234.68 465.655 234.48Z" fill="#3586FF"/>
</g>
<g clip-path="url(#clip4_2015_344)">
<path d="M494.255 224.98C492.755 224.98 491.455 226.28 491.455 227.78V250.18C491.455 251.68 492.755 252.98 494.255 252.98H511.055C512.555 252.98 513.855 251.68 513.855 250.18V233.48C513.855 233.38 513.855 233.38 513.755 233.28L505.555 225.08C505.455 224.98 505.455 224.98 505.355 224.98H494.255ZM504.055 234.48V227.78C504.055 227.58 504.355 227.38 504.555 227.58L511.255 234.28C511.455 234.48 511.355 234.78 511.055 234.78H504.355C504.155 234.78 504.055 234.68 504.055 234.48Z" fill="#3586FF"/>
</g>
<g clip-path="url(#clip5_2015_344)">
<path d="M532.655 224.98C531.155 224.98 529.855 226.28 529.855 227.78V250.18C529.855 251.68 531.155 252.98 532.655 252.98H549.455C550.955 252.98 552.255 251.68 552.255 250.18V233.48C552.255 233.38 552.255 233.38 552.155 233.28L543.955 225.08C543.855 224.98 543.855 224.98 543.755 224.98H532.655ZM542.455 234.48V227.78C542.455 227.58 542.755 227.38 542.955 227.58L549.655 234.28C549.855 234.48 549.755 234.78 549.455 234.78H542.755C542.555 234.78 542.455 234.68 542.455 234.48Z" fill="#3586FF"/>
</g>
<g clip-path="url(#clip6_2015_344)">
<path d="M379.055 268.98C377.555 268.98 376.255 270.28 376.255 271.78V294.18C376.255 295.68 377.555 296.98 379.055 296.98H395.855C397.355 296.98 398.655 295.68 398.655 294.18V277.48C398.655 277.38 398.655 277.38 398.555 277.28L390.355 269.08C390.255 268.98 390.255 268.98 390.155 268.98H379.055ZM388.855 278.48V271.78C388.855 271.58 389.155 271.38 389.355 271.58L396.055 278.28C396.255 278.48 396.155 278.78 395.855 278.78H389.155C388.955 278.78 388.855 278.68 388.855 278.48Z" fill="#3586FF"/>
</g>
<g clip-path="url(#clip7_2015_344)">
<path d="M417.455 268.98C415.955 268.98 414.655 270.28 414.655 271.78V294.18C414.655 295.68 415.955 296.98 417.455 296.98H434.255C435.755 296.98 437.055 295.68 437.055 294.18V277.48C437.055 277.38 437.055 277.38 436.955 277.28L428.755 269.08C428.655 268.98 428.655 268.98 428.555 268.98H417.455ZM427.255 278.48V271.78C427.255 271.58 427.555 271.38 427.755 271.58L434.455 278.28C434.655 278.48 434.555 278.78 434.255 278.78H427.555C427.355 278.78 427.255 278.68 427.255 278.48Z" fill="#3586FF"/>
</g>
<g clip-path="url(#clip8_2015_344)">
<path d="M455.855 268.98C454.355 268.98 453.055 270.28 453.055 271.78V294.18C453.055 295.68 454.355 296.98 455.855 296.98H472.655C474.155 296.98 475.455 295.68 475.455 294.18V277.48C475.455 277.38 475.455 277.38 475.355 277.28L467.155 269.08C467.055 268.98 467.055 268.98 466.955 268.98H455.855ZM465.655 278.48V271.78C465.655 271.58 465.955 271.38 466.155 271.58L472.855 278.28C473.055 278.48 472.955 278.78 472.655 278.78H465.955C465.755 278.78 465.655 278.68 465.655 278.48Z" fill="#3586FF"/>
</g>
<g clip-path="url(#clip9_2015_344)">
<path d="M494.255 268.98C492.755 268.98 491.455 270.28 491.455 271.78V294.18C491.455 295.68 492.755 296.98 494.255 296.98H511.055C512.555 296.98 513.855 295.68 513.855 294.18V277.48C513.855 277.38 513.855 277.38 513.755 277.28L505.555 269.08C505.455 268.98 505.455 268.98 505.355 268.98H494.255ZM504.055 278.48V271.78C504.055 271.58 504.355 271.38 504.555 271.58L511.255 278.28C511.455 278.48 511.355 278.78 511.055 278.78H504.355C504.155 278.78 504.055 278.68 504.055 278.48Z" fill="#3586FF"/>
</g>
<g clip-path="url(#clip10_2015_344)">
<path d="M532.655 268.98C531.155 268.98 529.855 270.28 529.855 271.78V294.18C529.855 295.68 531.155 296.98 532.655 296.98H549.455C550.955 296.98 552.255 295.68 552.255 294.18V277.48C552.255 277.38 552.255 277.38 552.155 277.28L543.955 269.08C543.855 268.98 543.855 268.98 543.755 268.98H532.655ZM542.455 278.48V271.78C542.455 271.58 542.755 271.38 542.955 271.58L549.655 278.28C549.855 278.48 549.755 278.78 549.455 278.78H542.755C542.555 278.78 542.455 278.68 542.455 278.48Z" fill="#3586FF"/>
</g>
<g clip-path="url(#clip11_2015_344)">
<path d="M385.855 151.558H378.655C377.335 151.558 376.255 152.627 376.255 153.933V168.183C376.255 169.489 377.335 170.558 378.655 170.558H397.855C399.175 170.558 400.255 169.489 400.255 168.183V156.308C400.255 155.002 399.175 153.933 397.855 153.933H388.255L385.855 151.558Z" fill="#FFCC66"/>
</g>
<g clip-path="url(#clip12_2015_344)">
<path d="M423.855 151.558H416.655C415.335 151.558 414.255 152.627 414.255 153.933V168.183C414.255 169.489 415.335 170.558 416.655 170.558H435.855C437.175 170.558 438.255 169.489 438.255 168.183V156.308C438.255 155.002 437.175 153.933 435.855 153.933H426.255L423.855 151.558Z" fill="#FFCC66"/>
</g>
<g clip-path="url(#clip13_2015_344)">
<path d="M461.855 151.558H454.655C453.335 151.558 452.255 152.627 452.255 153.933V168.183C452.255 169.489 453.335 170.558 454.655 170.558H473.855C475.175 170.558 476.255 169.489 476.255 168.183V156.308C476.255 155.002 475.175 153.933 473.855 153.933H464.255L461.855 151.558Z" fill="#FFCC66"/>
</g>
<g clip-path="url(#clip14_2015_344)">
<path d="M499.855 151.558H492.655C491.335 151.558 490.255 152.627 490.255 153.933V168.183C490.255 169.489 491.335 170.558 492.655 170.558H511.855C513.175 170.558 514.255 169.489 514.255 168.183V156.308C514.255 155.002 513.175 153.933 511.855 153.933H502.255L499.855 151.558Z" fill="#FFCC66"/>
</g>
<g clip-path="url(#clip15_2015_344)">
<path d="M537.855 151.558H530.655C529.335 151.558 528.255 152.627 528.255 153.933V168.183C528.255 169.489 529.335 170.558 530.655 170.558H549.855C551.175 170.558 552.255 169.489 552.255 168.183V156.308C552.255 155.002 551.175 153.933 549.855 153.933H540.255L537.855 151.558Z" fill="#FFCC66"/>
</g>
<g clip-path="url(#clip16_2015_344)">
<path d="M385.855 184.558H378.655C377.335 184.558 376.255 185.627 376.255 186.933V201.183C376.255 202.489 377.335 203.558 378.655 203.558H397.855C399.175 203.558 400.255 202.489 400.255 201.183V189.308C400.255 188.002 399.175 186.933 397.855 186.933H388.255L385.855 184.558Z" fill="#FFCC66"/>
</g>
<g clip-path="url(#clip17_2015_344)">
<path d="M423.855 184.558H416.655C415.335 184.558 414.255 185.627 414.255 186.933V201.183C414.255 202.489 415.335 203.558 416.655 203.558H435.855C437.175 203.558 438.255 202.489 438.255 201.183V189.308C438.255 188.002 437.175 186.933 435.855 186.933H426.255L423.855 184.558Z" fill="#FFCC66"/>
</g>
<g clip-path="url(#clip18_2015_344)">
<path d="M461.855 184.558H454.655C453.335 184.558 452.255 185.627 452.255 186.933V201.183C452.255 202.489 453.335 203.558 454.655 203.558H473.855C475.175 203.558 476.255 202.489 476.255 201.183V189.308C476.255 188.002 475.175 186.933 473.855 186.933H464.255L461.855 184.558Z" fill="#FFCC66"/>
</g>
<g clip-path="url(#clip19_2015_344)">
<path d="M499.855 184.558H492.655C491.335 184.558 490.255 185.627 490.255 186.933V201.183C490.255 202.489 491.335 203.558 492.655 203.558H511.855C513.175 203.558 514.255 202.489 514.255 201.183V189.308C514.255 188.002 513.175 186.933 511.855 186.933H502.255L499.855 184.558Z" fill="#FFCC66"/>
</g>
<g clip-path="url(#clip20_2015_344)">
<path d="M537.855 184.558H530.655C529.335 184.558 528.255 185.627 528.255 186.933V201.183C528.255 202.489 529.335 203.558 530.655 203.558H549.855C551.175 203.558 552.255 202.489 552.255 201.183V189.308C552.255 188.002 551.175 186.933 549.855 186.933H540.255L537.855 184.558Z" fill="#FFCC66"/>
</g>
<rect x="374" y="119" width="204" height="12" rx="3" fill="#E6F0FC"/>
<g clip-path="url(#clip21_2015_344)">
<path d="M382.139 125.65C381.81 125.869 381.409 126.015 381.007 126.015C379.912 126.015 379 125.102 379 124.007C379 122.912 379.912 122 381.007 122C382.102 122 383.015 122.912 383.015 124.007C383.015 124.445 382.869 124.81 382.65 125.139L384 126.489L383.489 127L382.139 125.65ZM381.007 125.285C381.701 125.285 382.285 124.701 382.285 124.007C382.285 123.314 381.701 122.73 381.007 122.73C380.314 122.73 379.73 123.314 379.73 124.007C379.73 124.701 380.314 125.285 381.007 125.285Z" fill="#182137"/>
</g>
<circle cx="571.5" cy="104.5" r="6.5" fill="#C4DCF8"/>
</g>
</g>
<defs>
<filter id="filter0_dd_2015_344" x="262" y="52" width="347" height="315" filterUnits="userSpaceOnUse" color-interpolation-filters="sRGB">
<feFlood flood-opacity="0" result="BackgroundImageFix"/>
<feColorMatrix in="SourceAlpha" type="matrix" values="0 0 0 0 0 0 0 0 0 0 0 0 0 0 0 0 0 0 127 0" result="hardAlpha"/>
<feOffset dy="1"/>
<feGaussianBlur stdDeviation="1"/>
<feComposite in2="hardAlpha" operator="out"/>
<feColorMatrix type="matrix" values="0 0 0 0 0.0941176 0 0 0 0 0.129412 0 0 0 0 0.215686 0 0 0 0.05 0"/>
<feBlend mode="normal" in2="BackgroundImageFix" result="effect1_dropShadow_2015_344"/>
<feColorMatrix in="SourceAlpha" type="matrix" values="0 0 0 0 0 0 0 0 0 0 0 0 0 0 0 0 0 0 127 0" result="hardAlpha"/>
<feMorphology radius="5" operator="erode" in="SourceAlpha" result="effect2_dropShadow_2015_344"/>
<feOffset dy="10"/>
<feGaussianBlur stdDeviation="12"/>
<feComposite in2="hardAlpha" operator="out"/>
<feColorMatrix type="matrix" values="0 0 0 0 0.027451 0 0 0 0 0.152941 0 0 0 0 0.470588 0 0 0 0.25 0"/>
<feBlend mode="normal" in2="effect1_dropShadow_2015_344" result="effect2_dropShadow_2015_344"/>
<feBlend mode="normal" in="SourceGraphic" in2="effect2_dropShadow_2015_344" result="shape"/>
</filter>
<clipPath id="clip0_2015_344">
<rect x="281" y="61" width="309" height="277" rx="8" fill="white"/>
</clipPath>
<clipPath id="clip1_2015_344">
<rect width="22.4" height="28" fill="white" transform="translate(376.255 224.98)"/>
</clipPath>
<clipPath id="clip2_2015_344">
<rect width="22.4" height="28" fill="white" transform="translate(414.655 224.98)"/>
</clipPath>
<clipPath id="clip3_2015_344">
<rect width="22.4" height="28" fill="white" transform="translate(453.055 224.98)"/>
</clipPath>
<clipPath id="clip4_2015_344">
<rect width="22.4" height="28" fill="white" transform="translate(491.455 224.98)"/>
</clipPath>
<clipPath id="clip5_2015_344">
<rect width="22.4" height="28" fill="white" transform="translate(529.855 224.98)"/>
</clipPath>
<clipPath id="clip6_2015_344">
<rect width="22.4" height="28" fill="white" transform="translate(376.255 268.98)"/>
</clipPath>
<clipPath id="clip7_2015_344">
<rect width="22.4" height="28" fill="white" transform="translate(414.655 268.98)"/>
</clipPath>
<clipPath id="clip8_2015_344">
<rect width="22.4" height="28" fill="white" transform="translate(453.055 268.98)"/>
</clipPath>
<clipPath id="clip9_2015_344">
<rect width="22.4" height="28" fill="white" transform="translate(491.455 268.98)"/>
</clipPath>
<clipPath id="clip10_2015_344">
<rect width="22.4" height="28" fill="white" transform="translate(529.855 268.98)"/>
</clipPath>
<clipPath id="clip11_2015_344">
<rect width="24" height="19" fill="white" transform="translate(376.255 151.558)"/>
</clipPath>
<clipPath id="clip12_2015_344">
<rect width="24" height="19" fill="white" transform="translate(414.255 151.558)"/>
</clipPath>
<clipPath id="clip13_2015_344">
<rect width="24" height="19" fill="white" transform="translate(452.255 151.558)"/>
</clipPath>
<clipPath id="clip14_2015_344">
<rect width="24" height="19" fill="white" transform="translate(490.255 151.558)"/>
</clipPath>
<clipPath id="clip15_2015_344">
<rect width="24" height="19" fill="white" transform="translate(528.255 151.558)"/>
</clipPath>
<clipPath id="clip16_2015_344">
<rect width="24" height="19" fill="white" transform="translate(376.255 184.558)"/>
</clipPath>
<clipPath id="clip17_2015_344">
<rect width="24" height="19" fill="white" transform="translate(414.255 184.558)"/>
</clipPath>
<clipPath id="clip18_2015_344">
<rect width="24" height="19" fill="white" transform="translate(452.255 184.558)"/>
</clipPath>
<clipPath id="clip19_2015_344">
<rect width="24" height="19" fill="white" transform="translate(490.255 184.558)"/>
</clipPath>
<clipPath id="clip20_2015_344">
<rect width="24" height="19" fill="white" transform="translate(528.255 184.558)"/>
</clipPath>
<clipPath id="clip21_2015_344">
<rect width="5" height="5" fill="white" transform="translate(379 122)"/>
</clipPath>
</defs>
</svg>
