<svg width="694" height="492" viewBox="0 0 694 492" fill="none" xmlns="http://www.w3.org/2000/svg">
<g filter="url(#filter0_dd_2015_344)">
<g clip-path="url(#clip0_2015_344)">
<rect x="485" y="174" width="194" height="223" rx="8" fill="white"/>
<rect opacity="0.25" x="469.48" y="167.31" width="242.777" height="24.53" fill="#7E879D"/>
<ellipse opacity="0.25" cx="499.966" cy="183.478" rx="3.88" ry="3.9025" fill="#7E879D"/>
<ellipse opacity="0.25" cx="511.051" cy="183.478" rx="3.88" ry="3.9025" fill="#7E879D"/>
<ellipse opacity="0.25" cx="522.137" cy="183.478" rx="3.88" ry="3.9025" fill="#7E879D"/>
<rect x="496" y="201" width="171" height="59" rx="3" fill="#E6F0FC"/>
<g opacity="0.25" clip-path="url(#clip1_2015_344)">
<rect x="577.8" y="224.8" width="9.6" height="8.4" fill="white"/>
<path d="M582 220C577.037 220 573 224.037 573 229C573 233.963 577.037 238 582 238C586.963 238 591 233.963 591 229C591 224.037 586.963 220 582 220ZM585.237 229.402L580.287 232.392C580.066 232.526 579.78 232.453 579.646 232.232C579.603 232.159 579.581 232.076 579.581 231.99V226.01C579.581 225.75 579.789 225.543 580.044 225.543C580.131 225.543 580.213 225.564 580.287 225.608L585.237 228.598C585.457 228.732 585.531 229.022 585.392 229.247C585.353 229.307 585.301 229.363 585.237 229.402Z" fill="#3586FF"/>
</g>
<rect x="558.166" y="296.455" width="46.56" height="13.38" rx="2" fill="#3586FF"/>
<path d="M572.947 302.98C572.947 303.38 572.871 303.715 572.717 303.985C572.567 304.255 572.349 304.458 572.062 304.595C571.779 304.732 571.436 304.8 571.032 304.8H570.027V301.23H571.137C571.507 301.23 571.827 301.297 572.097 301.43C572.367 301.563 572.576 301.76 572.722 302.02C572.872 302.277 572.947 302.597 572.947 302.98ZM572.277 303C572.277 302.717 572.234 302.483 572.147 302.3C572.061 302.117 571.932 301.982 571.762 301.895C571.592 301.805 571.384 301.76 571.137 301.76H570.667V304.265H571.052C571.466 304.265 571.772 304.16 571.972 303.95C572.176 303.737 572.277 303.42 572.277 303Z" fill="white"/>
<path d="M576.069 303.44C576.069 303.667 576.039 303.867 575.979 304.04C575.919 304.213 575.832 304.362 575.719 304.485C575.609 304.605 575.472 304.697 575.309 304.76C575.149 304.82 574.971 304.85 574.774 304.85C574.587 304.85 574.416 304.82 574.259 304.76C574.102 304.697 573.966 304.605 573.849 304.485C573.736 304.362 573.647 304.213 573.584 304.04C573.521 303.867 573.489 303.667 573.489 303.44C573.489 303.14 573.541 302.887 573.644 302.68C573.747 302.47 573.896 302.312 574.089 302.205C574.286 302.095 574.517 302.04 574.784 302.04C575.037 302.04 575.259 302.095 575.449 302.205C575.642 302.312 575.794 302.47 575.904 302.68C576.014 302.887 576.069 303.14 576.069 303.44ZM574.134 303.44C574.134 303.63 574.156 303.793 574.199 303.93C574.246 304.063 574.316 304.165 574.409 304.235C574.506 304.305 574.629 304.34 574.779 304.34C574.932 304.34 575.056 304.305 575.149 304.235C575.246 304.165 575.316 304.063 575.359 303.93C575.402 303.793 575.424 303.63 575.424 303.44C575.424 303.247 575.401 303.085 575.354 302.955C575.311 302.822 575.241 302.722 575.144 302.655C575.051 302.585 574.929 302.55 574.779 302.55C574.552 302.55 574.387 302.627 574.284 302.78C574.184 302.933 574.134 303.153 574.134 303.44Z" fill="white"/>
<path d="M578.542 303.635C578.526 303.572 578.506 303.493 578.482 303.4C578.459 303.303 578.434 303.203 578.407 303.1C578.384 302.997 578.361 302.902 578.337 302.815C578.317 302.728 578.304 302.662 578.297 302.615H578.277C578.267 302.662 578.252 302.728 578.232 302.815C578.212 302.902 578.191 302.997 578.167 303.1C578.144 303.203 578.119 303.303 578.092 303.4C578.069 303.497 578.049 303.577 578.032 303.64L577.717 304.8H577.027L576.267 302.085H576.902L577.237 303.38C577.261 303.467 577.282 303.565 577.302 303.675C577.326 303.785 577.346 303.892 577.362 303.995C577.379 304.095 577.391 304.177 577.397 304.24H577.417C577.424 304.197 577.432 304.14 577.442 304.07C577.452 303.997 577.464 303.922 577.477 303.845C577.494 303.765 577.509 303.692 577.522 303.625C577.539 303.558 577.552 303.507 577.562 303.47L577.952 302.085H578.642L579.017 303.47C579.034 303.53 579.052 303.608 579.072 303.705C579.092 303.802 579.111 303.898 579.127 303.995C579.144 304.092 579.154 304.172 579.157 304.235H579.177C579.184 304.178 579.196 304.102 579.212 304.005C579.229 303.905 579.249 303.798 579.272 303.685C579.296 303.572 579.321 303.47 579.347 303.38L579.687 302.085H580.312L579.542 304.8H578.842L578.542 303.635Z" fill="white"/>
<path d="M582.223 302.04C582.526 302.04 582.763 302.118 582.933 302.275C583.106 302.432 583.193 302.685 583.193 303.035V304.8H582.563V303.16C582.563 302.957 582.523 302.805 582.443 302.705C582.363 302.602 582.236 302.55 582.063 302.55C581.81 302.55 581.636 302.63 581.543 302.79C581.45 302.947 581.403 303.175 581.403 303.475V304.8H580.773V302.09H581.258L581.348 302.445H581.383C581.443 302.352 581.516 302.275 581.603 302.215C581.69 302.155 581.786 302.112 581.893 302.085C582 302.055 582.11 302.04 582.223 302.04Z" fill="white"/>
<path d="M584.611 304.8H583.981V301H584.611V304.8Z" fill="white"/>
<path d="M587.836 303.44C587.836 303.667 587.806 303.867 587.746 304.04C587.686 304.213 587.6 304.362 587.486 304.485C587.376 304.605 587.24 304.697 587.076 304.76C586.916 304.82 586.738 304.85 586.541 304.85C586.355 304.85 586.183 304.82 586.026 304.76C585.87 304.697 585.733 304.605 585.616 304.485C585.503 304.362 585.415 304.213 585.351 304.04C585.288 303.867 585.256 303.667 585.256 303.44C585.256 303.14 585.308 302.887 585.411 302.68C585.515 302.47 585.663 302.312 585.856 302.205C586.053 302.095 586.285 302.04 586.551 302.04C586.805 302.04 587.026 302.095 587.216 302.205C587.41 302.312 587.561 302.47 587.671 302.68C587.781 302.887 587.836 303.14 587.836 303.44ZM585.901 303.44C585.901 303.63 585.923 303.793 585.966 303.93C586.013 304.063 586.083 304.165 586.176 304.235C586.273 304.305 586.396 304.34 586.546 304.34C586.7 304.34 586.823 304.305 586.916 304.235C587.013 304.165 587.083 304.063 587.126 303.93C587.17 303.793 587.191 303.63 587.191 303.44C587.191 303.247 587.168 303.085 587.121 302.955C587.078 302.822 587.008 302.722 586.911 302.655C586.818 302.585 586.696 302.55 586.546 302.55C586.32 302.55 586.155 302.627 586.051 302.78C585.951 302.933 585.901 303.153 585.901 303.44Z" fill="white"/>
<path d="M589.568 302.04C589.918 302.04 590.183 302.117 590.363 302.27C590.546 302.42 590.638 302.657 590.638 302.98V304.8H590.193L590.068 304.425H590.048C589.971 304.522 589.891 304.603 589.808 304.67C589.728 304.733 589.634 304.778 589.528 304.805C589.424 304.835 589.298 304.85 589.148 304.85C588.988 304.85 588.843 304.82 588.713 304.76C588.586 304.7 588.486 304.608 588.413 304.485C588.339 304.358 588.303 304.2 588.303 304.01C588.303 303.73 588.404 303.52 588.608 303.38C588.814 303.237 589.126 303.158 589.543 303.145L590.013 303.13V302.995C590.013 302.822 589.971 302.698 589.888 302.625C589.804 302.552 589.688 302.515 589.538 302.515C589.401 302.515 589.269 302.535 589.143 302.575C589.016 302.615 588.893 302.662 588.773 302.715L588.573 302.275C588.706 302.205 588.858 302.148 589.028 302.105C589.201 302.062 589.381 302.04 589.568 302.04ZM589.683 303.53C589.406 303.54 589.214 303.588 589.108 303.675C589.001 303.758 588.948 303.872 588.948 304.015C588.948 304.142 588.986 304.233 589.063 304.29C589.139 304.347 589.238 304.375 589.358 304.375C589.541 304.375 589.696 304.323 589.823 304.22C589.949 304.113 590.013 303.957 590.013 303.75V303.52L589.683 303.53Z" fill="white"/>
<path d="M592.322 304.85C592.009 304.85 591.754 304.733 591.557 304.5C591.364 304.263 591.267 303.913 591.267 303.45C591.267 302.987 591.366 302.637 591.562 302.4C591.759 302.16 592.017 302.04 592.337 302.04C592.471 302.04 592.587 302.058 592.687 302.095C592.791 302.128 592.879 302.175 592.952 302.235C593.026 302.295 593.087 302.362 593.137 302.435H593.167C593.157 302.388 593.147 302.317 593.137 302.22C593.127 302.123 593.122 302.033 593.122 301.95V301H593.752V304.8H593.262L593.147 304.445H593.122C593.072 304.518 593.011 304.587 592.937 304.65C592.864 304.71 592.777 304.758 592.677 304.795C592.577 304.832 592.459 304.85 592.322 304.85ZM592.512 304.34C592.746 304.34 592.911 304.273 593.007 304.14C593.104 304.007 593.152 303.805 593.152 303.535V303.455C593.152 303.162 593.106 302.938 593.012 302.785C592.922 302.632 592.752 302.555 592.502 302.555C592.312 302.555 592.166 302.635 592.062 302.795C591.959 302.952 591.907 303.173 591.907 303.46C591.907 303.747 591.959 303.965 592.062 304.115C592.166 304.265 592.316 304.34 592.512 304.34Z" fill="white"/>
<rect x="496.086" y="266.235" width="172.937" height="17.84" rx="3" fill="#E6F0FC"/>
<rect opacity="0.18" x="500.52" y="270.695" width="56.5371" height="3.345" rx="1" fill="#3586FF"/>
<rect opacity="0.18" x="500.52" y="276.27" width="26.6057" height="3.345" rx="1" fill="#3586FF"/>
<rect opacity="0.18" x="530.451" y="276.27" width="26.6057" height="3.345" rx="1" fill="#3586FF"/>
<rect opacity="0.18" x="560.383" y="276.27" width="26.6057" height="3.345" rx="1" fill="#3586FF"/>
<rect x="496.086" y="330.1" width="172.937" height="53.52" rx="3" fill="#E6F0FC"/>
<rect x="500.52" y="343.48" width="164.069" height="34.565" rx="1" fill="#F8FAFD"/>
<rect opacity="0.18" x="500.52" y="334.56" width="26.6057" height="5.575" rx="1" fill="#3586FF"/>
<rect opacity="0.18" x="530.451" y="334.56" width="26.6057" height="5.575" rx="1" fill="#3586FF"/>
<rect opacity="0.18" x="560.383" y="334.56" width="26.6057" height="5.575" rx="1" fill="#3586FF"/>
</g>
</g>
<defs>
<filter id="filter0_dd_2015_344" x="472" y="173" width="220" height="262" filterUnits="userSpaceOnUse" color-interpolation-filters="sRGB">
<feFlood flood-opacity="0" result="BackgroundImageFix"/>
<feColorMatrix in="SourceAlpha" type="matrix" values="0 0 0 0 0 0 0 0 0 0 0 0 0 0 0 0 0 0 127 0" result="hardAlpha"/>
<feOffset dy="1"/>
<feGaussianBlur stdDeviation="1"/>
<feComposite in2="hardAlpha" operator="out"/>
<feColorMatrix type="matrix" values="0 0 0 0 0.0941176 0 0 0 0 0.129412 0 0 0 0 0.215686 0 0 0 0.05 0"/>
<feBlend mode="normal" in2="BackgroundImageFix" result="effect1_dropShadow_2015_344"/>
<feColorMatrix in="SourceAlpha" type="matrix" values="0 0 0 0 0 0 0 0 0 0 0 0 0 0 0 0 0 0 127 0" result="hardAlpha"/>
<feMorphology radius="27" operator="erode" in="SourceAlpha" result="effect2_dropShadow_2015_344"/>
<feOffset dy="25"/>
<feGaussianBlur stdDeviation="20"/>
<feComposite in2="hardAlpha" operator="out"/>
<feColorMatrix type="matrix" values="0 0 0 0 0.027451 0 0 0 0 0.152941 0 0 0 0 0.470588 0 0 0 0.75 0"/>
<feBlend mode="normal" in2="effect1_dropShadow_2015_344" result="effect2_dropShadow_2015_344"/>
<feBlend mode="normal" in="SourceGraphic" in2="effect2_dropShadow_2015_344" result="shape"/>
</filter>
<clipPath id="clip0_2015_344">
<rect x="485" y="174" width="194" height="223" rx="8" fill="white"/>
</clipPath>
<clipPath id="clip1_2015_344">
<rect width="18" height="18" fill="white" transform="translate(573 220)"/>
</clipPath>
</defs>
</svg>
