<svg width="694" height="495" viewBox="0 0 694 495" fill="none" xmlns="http://www.w3.org/2000/svg">
<rect opacity="0.1" x="572" y="363" width="87" height="87" rx="11" stroke="white" stroke-width="2"/>
<rect opacity="0.1" x="41.5" y="93.5" width="146" height="146" rx="10.5" stroke="white" stroke-width="3"/>
<g filter="url(#filter0_dd_2015_344)">
<g clip-path="url(#clip0_2015_344)">
<rect x="281" y="61" width="309" height="277" rx="8" fill="white"/>
<rect opacity="0.25" x="256.547" y="50.9879" width="342.345" height="34.4859" fill="#7E879D"/>
<ellipse opacity="0.25" cx="299.896" cy="74.3494" rx="5.55755" ry="5.56225" fill="#7E879D"/>
<ellipse opacity="0.25" cx="315.457" cy="74.3494" rx="5.55755" ry="5.56225" fill="#7E879D"/>
<ellipse opacity="0.25" cx="331.018" cy="74.3494" rx="5.55755" ry="5.56225" fill="#7E879D"/>
<rect x="292.115" y="97.7108" width="67.8022" height="228.052" rx="4" fill="#E6F0FC"/>
<rect x="299.896" y="105.498" width="53.3525" height="9" rx="3" fill="#C4DCF8"/>
<rect x="299.896" y="122.498" width="53.3525" height="9" rx="3" fill="#C4DCF8"/>
<rect x="299.896" y="139.498" width="53.3525" height="9" rx="3" fill="#C4DCF8"/>
<rect x="299.896" y="156.498" width="53.3525" height="9" rx="3" fill="#C4DCF8"/>
<path d="M373.815 107.823V102.063H374.683L376.675 106.143L378.667 102.063H379.535V107.823H378.635V104.131L376.867 107.823H376.483L374.719 104.131V107.823H373.815ZM381.227 109.743L382.059 107.459L382.075 108.131L380.191 103.503H381.195L382.531 106.927H382.275L383.575 103.503H384.539L382.131 109.743H381.227ZM387.113 107.823V103.435C387.113 103.326 387.117 103.206 387.125 103.075C387.133 102.942 387.156 102.81 387.193 102.679C387.231 102.549 387.299 102.43 387.397 102.323C387.52 102.187 387.652 102.094 387.793 102.043C387.937 101.99 388.079 101.961 388.217 101.955C388.356 101.947 388.477 101.943 388.581 101.943H389.121V102.727H388.621C388.437 102.727 388.3 102.774 388.209 102.867C388.121 102.958 388.077 103.078 388.077 103.227V107.823H387.113ZM386.417 104.259V103.503H389.121V104.259H386.417ZM389.961 102.847V101.963H390.925V102.847H389.961ZM389.961 107.823V103.503H390.925V107.823H389.961ZM392.208 107.823V101.943H393.172V107.823H392.208ZM396.334 107.943C395.897 107.943 395.513 107.849 395.182 107.659C394.851 107.47 394.593 107.207 394.406 106.871C394.222 106.535 394.13 106.149 394.13 105.711C394.13 105.239 394.221 104.83 394.402 104.483C394.583 104.134 394.835 103.863 395.158 103.671C395.481 103.479 395.854 103.383 396.278 103.383C396.726 103.383 397.106 103.489 397.418 103.699C397.733 103.907 397.966 104.202 398.118 104.583C398.27 104.965 398.327 105.414 398.29 105.931H397.334V105.579C397.331 105.11 397.249 104.767 397.086 104.551C396.923 104.335 396.667 104.227 396.318 104.227C395.923 104.227 395.63 104.35 395.438 104.595C395.246 104.838 395.15 105.194 395.15 105.663C395.15 106.101 395.246 106.439 395.438 106.679C395.63 106.919 395.91 107.039 396.278 107.039C396.515 107.039 396.719 106.987 396.89 106.883C397.063 106.777 397.197 106.623 397.29 106.423L398.242 106.711C398.077 107.101 397.821 107.403 397.474 107.619C397.13 107.835 396.75 107.943 396.334 107.943ZM394.846 105.931V105.203H397.818V105.931H394.846ZM400.851 107.943C400.317 107.943 399.884 107.823 399.551 107.583C399.217 107.343 399.015 107.006 398.943 106.571L399.927 106.419C399.977 106.633 400.089 106.801 400.263 106.923C400.436 107.046 400.655 107.107 400.919 107.107C401.151 107.107 401.329 107.062 401.455 106.971C401.583 106.878 401.647 106.751 401.647 106.591C401.647 106.493 401.623 106.414 401.575 106.355C401.529 106.294 401.428 106.235 401.271 106.179C401.113 106.123 400.872 106.053 400.547 105.967C400.184 105.871 399.896 105.769 399.683 105.659C399.469 105.547 399.316 105.415 399.223 105.263C399.129 105.111 399.083 104.927 399.083 104.711C399.083 104.442 399.153 104.207 399.295 104.007C399.436 103.807 399.633 103.654 399.887 103.547C400.14 103.438 400.439 103.383 400.783 103.383C401.119 103.383 401.416 103.435 401.675 103.539C401.936 103.643 402.147 103.791 402.307 103.983C402.467 104.175 402.565 104.401 402.603 104.659L401.619 104.835C401.595 104.651 401.511 104.506 401.367 104.399C401.225 104.293 401.036 104.233 400.799 104.219C400.572 104.206 400.389 104.241 400.251 104.323C400.112 104.403 400.043 104.517 400.043 104.663C400.043 104.746 400.071 104.817 400.127 104.875C400.183 104.934 400.295 104.993 400.463 105.051C400.633 105.11 400.887 105.182 401.223 105.267C401.567 105.355 401.841 105.457 402.047 105.571C402.255 105.683 402.404 105.818 402.495 105.975C402.588 106.133 402.635 106.323 402.635 106.547C402.635 106.982 402.476 107.323 402.159 107.571C401.844 107.819 401.408 107.943 400.851 107.943Z" fill="#4E5567"/>
<g clip-path="url(#clip1_2015_344)">
<path d="M379.055 224.98C377.555 224.98 376.255 226.28 376.255 227.78V250.18C376.255 251.68 377.555 252.98 379.055 252.98H395.855C397.355 252.98 398.655 251.68 398.655 250.18V233.48C398.655 233.38 398.655 233.38 398.555 233.28L390.355 225.08C390.255 224.98 390.255 224.98 390.155 224.98H379.055ZM388.855 234.48V227.78C388.855 227.58 389.155 227.38 389.355 227.58L396.055 234.28C396.255 234.48 396.155 234.78 395.855 234.78H389.155C388.955 234.78 388.855 234.68 388.855 234.48Z" fill="#3586FF"/>
</g>
<g clip-path="url(#clip2_2015_344)">
<path d="M417.455 224.98C415.955 224.98 414.655 226.28 414.655 227.78V250.18C414.655 251.68 415.955 252.98 417.455 252.98H434.255C435.755 252.98 437.055 251.68 437.055 250.18V233.48C437.055 233.38 437.055 233.38 436.955 233.28L428.755 225.08C428.655 224.98 428.655 224.98 428.555 224.98H417.455ZM427.255 234.48V227.78C427.255 227.58 427.555 227.38 427.755 227.58L434.455 234.28C434.655 234.48 434.555 234.78 434.255 234.78H427.555C427.355 234.78 427.255 234.68 427.255 234.48Z" fill="#3586FF"/>
</g>
<g clip-path="url(#clip3_2015_344)">
<path d="M455.855 224.98C454.355 224.98 453.055 226.28 453.055 227.78V250.18C453.055 251.68 454.355 252.98 455.855 252.98H472.655C474.155 252.98 475.455 251.68 475.455 250.18V233.48C475.455 233.38 475.455 233.38 475.355 233.28L467.155 225.08C467.055 224.98 467.055 224.98 466.955 224.98H455.855ZM465.655 234.48V227.78C465.655 227.58 465.955 227.38 466.155 227.58L472.855 234.28C473.055 234.48 472.955 234.78 472.655 234.78H465.955C465.755 234.78 465.655 234.68 465.655 234.48Z" fill="#3586FF"/>
</g>
<g clip-path="url(#clip4_2015_344)">
<path d="M494.255 224.98C492.755 224.98 491.455 226.28 491.455 227.78V250.18C491.455 251.68 492.755 252.98 494.255 252.98H511.055C512.555 252.98 513.855 251.68 513.855 250.18V233.48C513.855 233.38 513.855 233.38 513.755 233.28L505.555 225.08C505.455 224.98 505.455 224.98 505.355 224.98H494.255ZM504.055 234.48V227.78C504.055 227.58 504.355 227.38 504.555 227.58L511.255 234.28C511.455 234.48 511.355 234.78 511.055 234.78H504.355C504.155 234.78 504.055 234.68 504.055 234.48Z" fill="#3586FF"/>
</g>
<g clip-path="url(#clip5_2015_344)">
<path d="M532.655 224.98C531.155 224.98 529.855 226.28 529.855 227.78V250.18C529.855 251.68 531.155 252.98 532.655 252.98H549.455C550.955 252.98 552.255 251.68 552.255 250.18V233.48C552.255 233.38 552.255 233.38 552.155 233.28L543.955 225.08C543.855 224.98 543.855 224.98 543.755 224.98H532.655ZM542.455 234.48V227.78C542.455 227.58 542.755 227.38 542.955 227.58L549.655 234.28C549.855 234.48 549.755 234.78 549.455 234.78H542.755C542.555 234.78 542.455 234.68 542.455 234.48Z" fill="#3586FF"/>
</g>
<g clip-path="url(#clip6_2015_344)">
<path d="M379.055 268.98C377.555 268.98 376.255 270.28 376.255 271.78V294.18C376.255 295.68 377.555 296.98 379.055 296.98H395.855C397.355 296.98 398.655 295.68 398.655 294.18V277.48C398.655 277.38 398.655 277.38 398.555 277.28L390.355 269.08C390.255 268.98 390.255 268.98 390.155 268.98H379.055ZM388.855 278.48V271.78C388.855 271.58 389.155 271.38 389.355 271.58L396.055 278.28C396.255 278.48 396.155 278.78 395.855 278.78H389.155C388.955 278.78 388.855 278.68 388.855 278.48Z" fill="#3586FF"/>
</g>
<g clip-path="url(#clip7_2015_344)">
<path d="M417.455 268.98C415.955 268.98 414.655 270.28 414.655 271.78V294.18C414.655 295.68 415.955 296.98 417.455 296.98H434.255C435.755 296.98 437.055 295.68 437.055 294.18V277.48C437.055 277.38 437.055 277.38 436.955 277.28L428.755 269.08C428.655 268.98 428.655 268.98 428.555 268.98H417.455ZM427.255 278.48V271.78C427.255 271.58 427.555 271.38 427.755 271.58L434.455 278.28C434.655 278.48 434.555 278.78 434.255 278.78H427.555C427.355 278.78 427.255 278.68 427.255 278.48Z" fill="#3586FF"/>
</g>
<g clip-path="url(#clip8_2015_344)">
<path d="M455.855 268.98C454.355 268.98 453.055 270.28 453.055 271.78V294.18C453.055 295.68 454.355 296.98 455.855 296.98H472.655C474.155 296.98 475.455 295.68 475.455 294.18V277.48C475.455 277.38 475.455 277.38 475.355 277.28L467.155 269.08C467.055 268.98 467.055 268.98 466.955 268.98H455.855ZM465.655 278.48V271.78C465.655 271.58 465.955 271.38 466.155 271.58L472.855 278.28C473.055 278.48 472.955 278.78 472.655 278.78H465.955C465.755 278.78 465.655 278.68 465.655 278.48Z" fill="#3586FF"/>
</g>
<g clip-path="url(#clip9_2015_344)">
<path d="M494.255 268.98C492.755 268.98 491.455 270.28 491.455 271.78V294.18C491.455 295.68 492.755 296.98 494.255 296.98H511.055C512.555 296.98 513.855 295.68 513.855 294.18V277.48C513.855 277.38 513.855 277.38 513.755 277.28L505.555 269.08C505.455 268.98 505.455 268.98 505.355 268.98H494.255ZM504.055 278.48V271.78C504.055 271.58 504.355 271.38 504.555 271.58L511.255 278.28C511.455 278.48 511.355 278.78 511.055 278.78H504.355C504.155 278.78 504.055 278.68 504.055 278.48Z" fill="#3586FF"/>
</g>
<g clip-path="url(#clip10_2015_344)">
<path d="M532.655 268.98C531.155 268.98 529.855 270.28 529.855 271.78V294.18C529.855 295.68 531.155 296.98 532.655 296.98H549.455C550.955 296.98 552.255 295.68 552.255 294.18V277.48C552.255 277.38 552.255 277.38 552.155 277.28L543.955 269.08C543.855 268.98 543.855 268.98 543.755 268.98H532.655ZM542.455 278.48V271.78C542.455 271.58 542.755 271.38 542.955 271.58L549.655 278.28C549.855 278.48 549.755 278.78 549.455 278.78H542.755C542.555 278.78 542.455 278.68 542.455 278.48Z" fill="#3586FF"/>
</g>
<g clip-path="url(#clip11_2015_344)">
<path d="M385.855 151.558H378.655C377.335 151.558 376.255 152.627 376.255 153.933V168.183C376.255 169.489 377.335 170.558 378.655 170.558H397.855C399.175 170.558 400.255 169.489 400.255 168.183V156.308C400.255 155.002 399.175 153.933 397.855 153.933H388.255L385.855 151.558Z" fill="#FFCC66"/>
</g>
<g clip-path="url(#clip12_2015_344)">
<path d="M423.855 151.558H416.655C415.335 151.558 414.255 152.627 414.255 153.933V168.183C414.255 169.489 415.335 170.558 416.655 170.558H435.855C437.175 170.558 438.255 169.489 438.255 168.183V156.308C438.255 155.002 437.175 153.933 435.855 153.933H426.255L423.855 151.558Z" fill="#FFCC66"/>
</g>
<g clip-path="url(#clip13_2015_344)">
<path d="M461.855 151.558H454.655C453.335 151.558 452.255 152.627 452.255 153.933V168.183C452.255 169.489 453.335 170.558 454.655 170.558H473.855C475.175 170.558 476.255 169.489 476.255 168.183V156.308C476.255 155.002 475.175 153.933 473.855 153.933H464.255L461.855 151.558Z" fill="#FFCC66"/>
</g>
<g clip-path="url(#clip14_2015_344)">
<path d="M499.855 151.558H492.655C491.335 151.558 490.255 152.627 490.255 153.933V168.183C490.255 169.489 491.335 170.558 492.655 170.558H511.855C513.175 170.558 514.255 169.489 514.255 168.183V156.308C514.255 155.002 513.175 153.933 511.855 153.933H502.255L499.855 151.558Z" fill="#FFCC66"/>
</g>
<g clip-path="url(#clip15_2015_344)">
<path d="M537.855 151.558H530.655C529.335 151.558 528.255 152.627 528.255 153.933V168.183C528.255 169.489 529.335 170.558 530.655 170.558H549.855C551.175 170.558 552.255 169.489 552.255 168.183V156.308C552.255 155.002 551.175 153.933 549.855 153.933H540.255L537.855 151.558Z" fill="#FFCC66"/>
</g>
<g clip-path="url(#clip16_2015_344)">
<path d="M385.855 184.558H378.655C377.335 184.558 376.255 185.627 376.255 186.933V201.183C376.255 202.489 377.335 203.558 378.655 203.558H397.855C399.175 203.558 400.255 202.489 400.255 201.183V189.308C400.255 188.002 399.175 186.933 397.855 186.933H388.255L385.855 184.558Z" fill="#FFCC66"/>
</g>
<g clip-path="url(#clip17_2015_344)">
<path d="M423.855 184.558H416.655C415.335 184.558 414.255 185.627 414.255 186.933V201.183C414.255 202.489 415.335 203.558 416.655 203.558H435.855C437.175 203.558 438.255 202.489 438.255 201.183V189.308C438.255 188.002 437.175 186.933 435.855 186.933H426.255L423.855 184.558Z" fill="#FFCC66"/>
</g>
<g clip-path="url(#clip18_2015_344)">
<path d="M461.855 184.558H454.655C453.335 184.558 452.255 185.627 452.255 186.933V201.183C452.255 202.489 453.335 203.558 454.655 203.558H473.855C475.175 203.558 476.255 202.489 476.255 201.183V189.308C476.255 188.002 475.175 186.933 473.855 186.933H464.255L461.855 184.558Z" fill="#FFCC66"/>
</g>
<g clip-path="url(#clip19_2015_344)">
<path d="M499.855 184.558H492.655C491.335 184.558 490.255 185.627 490.255 186.933V201.183C490.255 202.489 491.335 203.558 492.655 203.558H511.855C513.175 203.558 514.255 202.489 514.255 201.183V189.308C514.255 188.002 513.175 186.933 511.855 186.933H502.255L499.855 184.558Z" fill="#FFCC66"/>
</g>
<g clip-path="url(#clip20_2015_344)">
<path d="M537.855 184.558H530.655C529.335 184.558 528.255 185.627 528.255 186.933V201.183C528.255 202.489 529.335 203.558 530.655 203.558H549.855C551.175 203.558 552.255 202.489 552.255 201.183V189.308C552.255 188.002 551.175 186.933 549.855 186.933H540.255L537.855 184.558Z" fill="#FFCC66"/>
</g>
<rect x="374" y="119" width="204" height="12" rx="3" fill="#E6F0FC"/>
<g clip-path="url(#clip21_2015_344)">
<path d="M382.139 125.65C381.81 125.869 381.409 126.015 381.007 126.015C379.912 126.015 379 125.102 379 124.007C379 122.912 379.912 122 381.007 122C382.102 122 383.015 122.912 383.015 124.007C383.015 124.445 382.869 124.81 382.65 125.139L384 126.489L383.489 127L382.139 125.65ZM381.007 125.285C381.701 125.285 382.285 124.701 382.285 124.007C382.285 123.314 381.701 122.73 381.007 122.73C380.314 122.73 379.73 123.314 379.73 124.007C379.73 124.701 380.314 125.285 381.007 125.285Z" fill="#182137"/>
</g>
<circle cx="571.5" cy="104.5" r="6.5" fill="#C4DCF8"/>
</g>
</g>
<g filter="url(#filter1_dd_2015_344)">
<rect x="81.0904" y="210.927" width="267.7" height="196.819" rx="12" fill="white"/>
<path d="M234.231 276.672C232.388 267.081 224.489 259.853 214.879 259.853C207.243 259.853 200.66 264.44 197.369 271.112C189.47 271.946 183.283 279.035 183.283 287.652C183.283 296.826 190.392 304.332 199.081 304.332H233.309C240.55 304.332 246.474 298.077 246.474 290.432C246.474 283.066 241.077 277.089 234.231 276.672ZM220.145 284.873V295.992H209.613V284.873H201.714L214.879 270.973L228.043 284.873H220.145Z" fill="#3586FF"/>
<path d="M130.927 325.428C130.927 326.068 130.807 326.604 130.567 327.036C130.327 327.468 129.981 327.793 129.527 328.012C129.079 328.23 128.538 328.34 127.903 328.34H126.303V322.628H128.071C128.653 322.628 129.157 322.734 129.583 322.948C130.01 323.161 130.341 323.476 130.575 323.892C130.81 324.302 130.927 324.814 130.927 325.428ZM130.023 325.452C130.023 324.972 129.946 324.577 129.791 324.268C129.637 323.958 129.407 323.729 129.103 323.58C128.805 323.43 128.442 323.356 128.015 323.356H127.167V327.612H127.863C128.583 327.612 129.122 327.43 129.479 327.068C129.842 326.705 130.023 326.166 130.023 325.452ZM134.203 323.948C134.277 323.948 134.36 323.953 134.451 323.964C134.541 323.969 134.616 323.977 134.675 323.988L134.587 324.78C134.528 324.764 134.459 324.75 134.379 324.74C134.299 324.729 134.224 324.724 134.155 324.724C133.995 324.724 133.84 324.756 133.691 324.82C133.547 324.878 133.416 324.966 133.299 325.084C133.181 325.196 133.088 325.334 133.019 325.5C132.955 325.665 132.923 325.854 132.923 326.068V328.34H132.075V324.028H132.747L132.859 324.796H132.891C132.981 324.641 133.091 324.5 133.219 324.372C133.347 324.244 133.493 324.142 133.659 324.068C133.824 323.988 134.005 323.948 134.203 323.948ZM136.989 323.948C137.533 323.948 137.938 324.068 138.205 324.308C138.471 324.542 138.605 324.913 138.605 325.42V328.34H138.005L137.837 327.74H137.805C137.682 327.894 137.554 328.022 137.421 328.124C137.293 328.225 137.143 328.3 136.973 328.348C136.807 328.396 136.605 328.42 136.365 328.42C136.109 328.42 135.877 328.374 135.669 328.284C135.466 328.188 135.306 328.044 135.189 327.852C135.071 327.654 135.013 327.409 135.013 327.116C135.013 326.678 135.178 326.345 135.509 326.116C135.845 325.886 136.354 325.761 137.037 325.74L137.773 325.716V325.476C137.773 325.156 137.701 324.932 137.557 324.804C137.413 324.676 137.21 324.612 136.949 324.612C136.725 324.612 136.511 324.644 136.309 324.708C136.106 324.772 135.914 324.849 135.733 324.94L135.461 324.324C135.663 324.217 135.895 324.129 136.157 324.06C136.423 323.985 136.701 323.948 136.989 323.948ZM137.189 326.284C136.698 326.305 136.357 326.388 136.165 326.532C135.978 326.67 135.885 326.868 135.885 327.124C135.885 327.348 135.951 327.51 136.085 327.612C136.223 327.713 136.397 327.764 136.605 327.764C136.941 327.764 137.218 327.67 137.437 327.484C137.655 327.297 137.765 327.017 137.765 326.644V326.268L137.189 326.284ZM141.399 323.948C141.676 323.948 141.927 324.001 142.151 324.108C142.375 324.214 142.564 324.377 142.719 324.596H142.759L142.855 324.028H143.543V328.396C143.543 328.801 143.471 329.142 143.327 329.42C143.183 329.697 142.961 329.905 142.663 330.044C142.369 330.188 141.999 330.26 141.551 330.26C141.241 330.26 140.956 330.238 140.695 330.196C140.433 330.153 140.193 330.086 139.975 329.996V329.252C140.129 329.326 140.292 329.388 140.463 329.436C140.633 329.489 140.815 329.526 141.007 329.548C141.199 329.574 141.396 329.588 141.599 329.588C141.951 329.588 142.223 329.486 142.415 329.284C142.607 329.086 142.703 328.806 142.703 328.444V328.3C142.703 328.23 142.705 328.14 142.711 328.028C142.716 327.91 142.721 327.825 142.727 327.772H142.695C142.545 327.996 142.361 328.161 142.143 328.268C141.929 328.369 141.681 328.42 141.399 328.42C140.855 328.42 140.428 328.225 140.119 327.836C139.815 327.441 139.663 326.894 139.663 326.196C139.663 325.726 139.732 325.326 139.871 324.996C140.009 324.66 140.207 324.401 140.463 324.22C140.724 324.038 141.036 323.948 141.399 323.948ZM141.575 324.652C141.351 324.652 141.161 324.713 141.007 324.836C140.852 324.953 140.735 325.126 140.655 325.356C140.575 325.585 140.535 325.868 140.535 326.204C140.535 326.705 140.623 327.086 140.799 327.348C140.98 327.609 141.244 327.74 141.591 327.74C141.793 327.74 141.964 327.713 142.103 327.66C142.247 327.606 142.364 327.524 142.455 327.412C142.551 327.3 142.62 327.158 142.663 326.988C142.711 326.812 142.735 326.601 142.735 326.356V326.196C142.735 325.828 142.692 325.532 142.607 325.308C142.527 325.078 142.401 324.913 142.231 324.812C142.06 324.705 141.841 324.652 141.575 324.652ZM146.656 322.54C146.949 322.54 147.202 322.59 147.416 322.692C147.634 322.788 147.802 322.926 147.92 323.108C148.042 323.289 148.104 323.513 148.104 323.78C148.104 324.121 147.994 324.412 147.776 324.652C147.557 324.892 147.285 325.108 146.96 325.3L148.376 326.668C148.504 326.497 148.61 326.308 148.696 326.1C148.781 325.886 148.853 325.66 148.912 325.42H149.776C149.696 325.75 149.586 326.07 149.448 326.38C149.314 326.684 149.141 326.958 148.928 327.204L150.096 328.34H148.992L148.368 327.74C148.24 327.841 148.109 327.934 147.976 328.02C147.842 328.105 147.698 328.177 147.544 328.236C147.394 328.289 147.232 328.332 147.056 328.364C146.88 328.401 146.688 328.42 146.48 328.42C146.096 328.42 145.762 328.358 145.48 328.236C145.197 328.108 144.978 327.926 144.824 327.692C144.674 327.452 144.6 327.166 144.6 326.836C144.6 326.564 144.645 326.329 144.736 326.132C144.832 325.934 144.968 325.761 145.144 325.612C145.325 325.457 145.536 325.31 145.776 325.172C145.658 325.038 145.549 324.902 145.448 324.764C145.352 324.62 145.272 324.47 145.208 324.316C145.149 324.161 145.12 323.993 145.12 323.812C145.12 323.545 145.181 323.318 145.304 323.132C145.432 322.94 145.61 322.793 145.84 322.692C146.074 322.59 146.346 322.54 146.656 322.54ZM146.28 325.692C146.114 325.793 145.973 325.897 145.856 326.004C145.744 326.105 145.653 326.22 145.584 326.348C145.52 326.47 145.488 326.617 145.488 326.788C145.488 327.06 145.581 327.278 145.768 327.444C145.96 327.604 146.21 327.684 146.52 327.684C146.813 327.684 147.066 327.638 147.28 327.548C147.498 327.457 147.685 327.345 147.84 327.212L146.28 325.692ZM146.632 323.22C146.434 323.22 146.269 323.27 146.136 323.372C146.002 323.473 145.936 323.625 145.936 323.828C145.936 324.004 145.981 324.169 146.072 324.324C146.162 324.473 146.29 324.636 146.456 324.812C146.744 324.646 146.954 324.489 147.088 324.34C147.221 324.185 147.288 324.009 147.288 323.812C147.288 323.63 147.226 323.486 147.104 323.38C146.981 323.273 146.824 323.22 146.632 323.22ZM152.25 328.42C151.733 328.42 151.314 328.233 150.994 327.86C150.679 327.486 150.522 326.932 150.522 326.196C150.522 325.454 150.682 324.894 151.002 324.516C151.322 324.137 151.743 323.948 152.266 323.948C152.485 323.948 152.674 323.977 152.834 324.036C152.999 324.089 153.141 324.164 153.258 324.26C153.381 324.356 153.485 324.462 153.57 324.58H153.618C153.607 324.505 153.594 324.398 153.578 324.26C153.562 324.116 153.554 323.988 153.554 323.876V322.26H154.402V328.34H153.738L153.594 327.764H153.554C153.474 327.886 153.373 327.998 153.25 328.1C153.133 328.196 152.991 328.273 152.826 328.332C152.661 328.39 152.469 328.42 152.25 328.42ZM152.45 327.724C152.866 327.724 153.159 327.609 153.33 327.38C153.501 327.145 153.586 326.796 153.586 326.332V326.204C153.586 325.697 153.503 325.31 153.338 325.044C153.178 324.777 152.879 324.644 152.442 324.644C152.095 324.644 151.834 324.785 151.658 325.068C151.482 325.345 151.394 325.726 151.394 326.212C151.394 326.697 151.482 327.07 151.658 327.332C151.834 327.593 152.098 327.724 152.45 327.724ZM157.859 323.948C157.934 323.948 158.016 323.953 158.107 323.964C158.198 323.969 158.272 323.977 158.331 323.988L158.243 324.78C158.184 324.764 158.115 324.75 158.035 324.74C157.955 324.729 157.88 324.724 157.811 324.724C157.651 324.724 157.496 324.756 157.347 324.82C157.203 324.878 157.072 324.966 156.955 325.084C156.838 325.196 156.744 325.334 156.675 325.5C156.611 325.665 156.579 325.854 156.579 326.068V328.34H155.731V324.028H156.403L156.515 324.796H156.547C156.638 324.641 156.747 324.5 156.875 324.372C157.003 324.244 157.15 324.142 157.315 324.068C157.48 323.988 157.662 323.948 157.859 323.948ZM162.773 326.18C162.773 326.537 162.725 326.854 162.629 327.132C162.533 327.409 162.397 327.644 162.221 327.836C162.045 328.028 161.832 328.174 161.581 328.276C161.33 328.372 161.048 328.42 160.733 328.42C160.445 328.42 160.178 328.372 159.933 328.276C159.688 328.174 159.474 328.028 159.293 327.836C159.117 327.644 158.978 327.409 158.877 327.132C158.776 326.854 158.725 326.534 158.725 326.172C158.725 325.697 158.805 325.294 158.965 324.964C159.13 324.633 159.365 324.382 159.669 324.212C159.978 324.036 160.341 323.948 160.757 323.948C161.152 323.948 161.498 324.036 161.797 324.212C162.101 324.382 162.338 324.633 162.509 324.964C162.685 325.294 162.773 325.7 162.773 326.18ZM159.597 326.18C159.597 326.5 159.637 326.777 159.717 327.012C159.797 327.241 159.922 327.417 160.093 327.54C160.264 327.662 160.482 327.724 160.749 327.724C161.016 327.724 161.234 327.662 161.405 327.54C161.576 327.417 161.701 327.241 161.781 327.012C161.861 326.777 161.901 326.5 161.901 326.18C161.901 325.849 161.858 325.572 161.773 325.348C161.693 325.124 161.568 324.953 161.397 324.836C161.232 324.713 161.013 324.652 160.741 324.652C160.341 324.652 160.05 324.785 159.869 325.052C159.688 325.318 159.597 325.694 159.597 326.18ZM166 323.948C166.517 323.948 166.933 324.134 167.248 324.508C167.568 324.881 167.728 325.438 167.728 326.18C167.728 326.665 167.656 327.076 167.512 327.412C167.368 327.748 167.165 328.001 166.904 328.172C166.643 328.337 166.339 328.42 165.992 328.42C165.773 328.42 165.581 328.393 165.416 328.34C165.251 328.281 165.109 328.206 164.992 328.116C164.88 328.02 164.781 327.918 164.696 327.812H164.64C164.656 327.908 164.669 328.022 164.68 328.156C164.691 328.284 164.696 328.398 164.696 328.5V330.26H163.848V324.028H164.536L164.656 324.604H164.696C164.781 324.486 164.883 324.377 165 324.276C165.117 324.174 165.259 324.094 165.424 324.036C165.589 323.977 165.781 323.948 166 323.948ZM165.8 324.644C165.533 324.644 165.32 324.697 165.16 324.804C165 324.905 164.883 325.06 164.808 325.268C164.739 325.47 164.701 325.729 164.696 326.044V326.172C164.696 326.502 164.731 326.785 164.8 327.02C164.869 327.249 164.984 327.425 165.144 327.548C165.309 327.665 165.533 327.724 165.816 327.724C166.056 327.724 166.251 327.66 166.4 327.532C166.555 327.398 166.669 327.214 166.744 326.98C166.819 326.745 166.856 326.473 166.856 326.164C166.856 325.694 166.771 325.324 166.6 325.052C166.429 324.78 166.163 324.644 165.8 324.644ZM172.991 324.676H171.927V328.34H171.079V324.676H170.351V324.276L171.079 324.012V323.74C171.079 323.372 171.135 323.078 171.247 322.86C171.364 322.636 171.53 322.473 171.743 322.372C171.956 322.27 172.215 322.22 172.519 322.22C172.706 322.22 172.876 322.236 173.031 322.268C173.186 322.3 173.316 322.334 173.423 322.372L173.207 323.02C173.122 322.993 173.023 322.969 172.911 322.948C172.799 322.921 172.682 322.908 172.559 322.908C172.346 322.908 172.186 322.977 172.079 323.116C171.978 323.254 171.927 323.465 171.927 323.748V324.028H172.991V324.676ZM174.591 324.028V328.34H173.743V324.028H174.591ZM174.175 322.388C174.303 322.388 174.415 322.425 174.511 322.5C174.607 322.574 174.655 322.7 174.655 322.876C174.655 323.046 174.607 323.172 174.511 323.252C174.415 323.326 174.303 323.364 174.175 323.364C174.036 323.364 173.919 323.326 173.823 323.252C173.732 323.172 173.687 323.046 173.687 322.876C173.687 322.7 173.732 322.574 173.823 322.5C173.919 322.425 174.036 322.388 174.175 322.388ZM176.766 328.34H175.918V322.26H176.766V328.34ZM179.794 323.948C180.173 323.948 180.498 324.028 180.77 324.188C181.042 324.342 181.25 324.566 181.394 324.86C181.543 325.153 181.618 325.5 181.618 325.9V326.364H178.722C178.733 326.806 178.847 327.145 179.066 327.38C179.29 327.614 179.602 327.732 180.002 327.732C180.279 327.732 180.525 327.708 180.738 327.66C180.957 327.606 181.181 327.529 181.41 327.428V328.132C181.197 328.228 180.978 328.3 180.754 328.348C180.535 328.396 180.274 328.42 179.97 328.42C179.554 328.42 179.186 328.337 178.866 328.172C178.546 328.006 178.295 327.761 178.114 327.436C177.938 327.105 177.85 326.7 177.85 326.22C177.85 325.734 177.93 325.324 178.09 324.988C178.255 324.652 178.482 324.396 178.77 324.22C179.063 324.038 179.405 323.948 179.794 323.948ZM179.794 324.604C179.49 324.604 179.245 324.702 179.058 324.9C178.877 325.097 178.77 325.377 178.738 325.74H180.77C180.77 325.516 180.735 325.318 180.666 325.148C180.597 324.977 180.49 324.844 180.346 324.748C180.202 324.652 180.018 324.604 179.794 324.604ZM185.54 327.124C185.54 327.406 185.471 327.644 185.332 327.836C185.194 328.028 184.994 328.174 184.732 328.276C184.471 328.372 184.156 328.42 183.788 328.42C183.484 328.42 183.223 328.396 183.004 328.348C182.791 328.305 182.594 328.241 182.412 328.156V327.412C182.604 327.502 182.826 327.585 183.076 327.66C183.327 327.729 183.572 327.764 183.812 327.764C184.132 327.764 184.362 327.713 184.5 327.612C184.644 327.51 184.716 327.374 184.716 327.204C184.716 327.108 184.69 327.022 184.636 326.948C184.583 326.868 184.482 326.788 184.332 326.708C184.188 326.622 183.975 326.526 183.692 326.42C183.42 326.308 183.188 326.198 182.996 326.092C182.804 325.98 182.658 325.849 182.556 325.7C182.455 325.545 182.404 325.348 182.404 325.108C182.404 324.734 182.554 324.449 182.852 324.252C183.156 324.049 183.556 323.948 184.052 323.948C184.314 323.948 184.559 323.974 184.788 324.028C185.023 324.076 185.25 324.15 185.468 324.252L185.188 324.9C185.066 324.841 184.938 324.793 184.804 324.756C184.676 324.713 184.546 324.678 184.412 324.652C184.284 324.625 184.151 324.612 184.012 324.612C183.756 324.612 183.562 324.652 183.428 324.732C183.295 324.812 183.228 324.924 183.228 325.068C183.228 325.169 183.258 325.257 183.316 325.332C183.38 325.406 183.49 325.481 183.644 325.556C183.799 325.63 184.01 325.721 184.276 325.828C184.543 325.929 184.77 326.033 184.956 326.14C185.148 326.246 185.292 326.377 185.388 326.532C185.49 326.686 185.54 326.884 185.54 327.124ZM189.477 323.884C189.477 324.017 189.472 324.15 189.461 324.284C189.451 324.417 189.44 324.526 189.429 324.612H189.485C189.576 324.462 189.688 324.34 189.821 324.244C189.96 324.148 190.112 324.076 190.277 324.028C190.448 323.98 190.621 323.956 190.797 323.956C191.139 323.956 191.424 324.012 191.653 324.124C191.888 324.23 192.064 324.401 192.181 324.636C192.304 324.865 192.365 325.164 192.365 325.532V328.34H191.525V325.652C191.525 325.316 191.453 325.065 191.309 324.9C191.171 324.729 190.947 324.644 190.637 324.644C190.344 324.644 190.112 324.702 189.941 324.82C189.776 324.937 189.656 325.11 189.581 325.34C189.512 325.564 189.477 325.841 189.477 326.172V328.34H188.629V322.26H189.477V323.884ZM195.364 323.948C195.743 323.948 196.068 324.028 196.34 324.188C196.612 324.342 196.82 324.566 196.964 324.86C197.114 325.153 197.188 325.5 197.188 325.9V326.364H194.292C194.303 326.806 194.418 327.145 194.636 327.38C194.86 327.614 195.172 327.732 195.572 327.732C195.85 327.732 196.095 327.708 196.308 327.66C196.527 327.606 196.751 327.529 196.98 327.428V328.132C196.767 328.228 196.548 328.3 196.324 328.348C196.106 328.396 195.844 328.42 195.54 328.42C195.124 328.42 194.756 328.337 194.436 328.172C194.116 328.006 193.866 327.761 193.684 327.436C193.508 327.105 193.42 326.7 193.42 326.22C193.42 325.734 193.5 325.324 193.66 324.988C193.826 324.652 194.052 324.396 194.34 324.22C194.634 324.038 194.975 323.948 195.364 323.948ZM195.364 324.604C195.06 324.604 194.815 324.702 194.628 324.9C194.447 325.097 194.34 325.377 194.308 325.74H196.34C196.34 325.516 196.306 325.318 196.236 325.148C196.167 324.977 196.06 324.844 195.916 324.748C195.772 324.652 195.588 324.604 195.364 324.604ZM200.375 323.948C200.449 323.948 200.532 323.953 200.623 323.964C200.713 323.969 200.788 323.977 200.847 323.988L200.759 324.78C200.7 324.764 200.631 324.75 200.551 324.74C200.471 324.729 200.396 324.724 200.327 324.724C200.167 324.724 200.012 324.756 199.863 324.82C199.719 324.878 199.588 324.966 199.471 325.084C199.353 325.196 199.26 325.334 199.191 325.5C199.127 325.665 199.095 325.854 199.095 326.068V328.34H198.247V324.028H198.919L199.031 324.796H199.063C199.153 324.641 199.263 324.5 199.391 324.372C199.519 324.244 199.665 324.142 199.831 324.068C199.996 323.988 200.177 323.948 200.375 323.948ZM203.185 323.948C203.563 323.948 203.889 324.028 204.161 324.188C204.433 324.342 204.641 324.566 204.785 324.86C204.934 325.153 205.009 325.5 205.009 325.9V326.364H202.113C202.123 326.806 202.238 327.145 202.457 327.38C202.681 327.614 202.993 327.732 203.393 327.732C203.67 327.732 203.915 327.708 204.129 327.66C204.347 327.606 204.571 327.529 204.801 327.428V328.132C204.587 328.228 204.369 328.3 204.145 328.348C203.926 328.396 203.665 328.42 203.361 328.42C202.945 328.42 202.577 328.337 202.257 328.172C201.937 328.006 201.686 327.761 201.505 327.436C201.329 327.105 201.241 326.7 201.241 326.22C201.241 325.734 201.321 325.324 201.481 324.988C201.646 324.652 201.873 324.396 202.161 324.22C202.454 324.038 202.795 323.948 203.185 323.948ZM203.185 324.604C202.881 324.604 202.635 324.702 202.449 324.9C202.267 325.097 202.161 325.377 202.129 325.74H204.161C204.161 325.516 204.126 325.318 204.057 325.148C203.987 324.977 203.881 324.844 203.737 324.748C203.593 324.652 203.409 324.604 203.185 324.604ZM210.249 324.676H209.185V328.34H208.337V324.676H207.609V324.276L208.337 324.012V323.74C208.337 323.372 208.393 323.078 208.505 322.86C208.622 322.636 208.788 322.473 209.001 322.372C209.214 322.27 209.473 322.22 209.777 322.22C209.964 322.22 210.134 322.236 210.289 322.268C210.444 322.3 210.574 322.334 210.681 322.372L210.465 323.02C210.38 322.993 210.281 322.969 210.169 322.948C210.057 322.921 209.94 322.908 209.817 322.908C209.604 322.908 209.444 322.977 209.337 323.116C209.236 323.254 209.185 323.465 209.185 323.748V324.028H210.249V324.676ZM214.804 326.18C214.804 326.537 214.756 326.854 214.66 327.132C214.564 327.409 214.428 327.644 214.252 327.836C214.076 328.028 213.863 328.174 213.612 328.276C213.362 328.372 213.079 328.42 212.764 328.42C212.476 328.42 212.21 328.372 211.964 328.276C211.719 328.174 211.506 328.028 211.324 327.836C211.148 327.644 211.01 327.409 210.908 327.132C210.807 326.854 210.756 326.534 210.756 326.172C210.756 325.697 210.836 325.294 210.996 324.964C211.162 324.633 211.396 324.382 211.7 324.212C212.01 324.036 212.372 323.948 212.788 323.948C213.183 323.948 213.53 324.036 213.828 324.212C214.132 324.382 214.37 324.633 214.54 324.964C214.716 325.294 214.804 325.7 214.804 326.18ZM211.628 326.18C211.628 326.5 211.668 326.777 211.748 327.012C211.828 327.241 211.954 327.417 212.124 327.54C212.295 327.662 212.514 327.724 212.78 327.724C213.047 327.724 213.266 327.662 213.436 327.54C213.607 327.417 213.732 327.241 213.812 327.012C213.892 326.777 213.932 326.5 213.932 326.18C213.932 325.849 213.89 325.572 213.804 325.348C213.724 325.124 213.599 324.953 213.428 324.836C213.263 324.713 213.044 324.652 212.772 324.652C212.372 324.652 212.082 324.785 211.9 325.052C211.719 325.318 211.628 325.694 211.628 326.18ZM218.007 323.948C218.082 323.948 218.165 323.953 218.255 323.964C218.346 323.969 218.421 323.977 218.479 323.988L218.391 324.78C218.333 324.764 218.263 324.75 218.183 324.74C218.103 324.729 218.029 324.724 217.959 324.724C217.799 324.724 217.645 324.756 217.495 324.82C217.351 324.878 217.221 324.966 217.103 325.084C216.986 325.196 216.893 325.334 216.823 325.5C216.759 325.665 216.727 325.854 216.727 326.068V328.34H215.879V324.028H216.551L216.663 324.796H216.695C216.786 324.641 216.895 324.5 217.023 324.372C217.151 324.244 217.298 324.142 217.463 324.068C217.629 323.988 217.81 323.948 218.007 323.948ZM225.068 324.028V328.34H224.388L224.268 327.772H224.228C224.137 327.921 224.02 328.044 223.876 328.14C223.732 328.236 223.575 328.305 223.404 328.348C223.233 328.396 223.057 328.42 222.876 328.42C222.54 328.42 222.255 328.366 222.02 328.26C221.791 328.148 221.615 327.977 221.492 327.748C221.375 327.513 221.316 327.214 221.316 326.852V324.028H222.172V326.724C222.172 327.06 222.241 327.31 222.38 327.476C222.524 327.641 222.745 327.724 223.044 327.724C223.343 327.724 223.577 327.665 223.748 327.548C223.919 327.43 224.039 327.26 224.108 327.036C224.183 326.806 224.22 326.532 224.22 326.212V324.028H225.068ZM228.547 323.948C229.064 323.948 229.48 324.134 229.795 324.508C230.115 324.881 230.275 325.438 230.275 326.18C230.275 326.665 230.203 327.076 230.059 327.412C229.915 327.748 229.712 328.001 229.451 328.172C229.19 328.337 228.886 328.42 228.539 328.42C228.32 328.42 228.128 328.393 227.963 328.34C227.798 328.281 227.656 328.206 227.539 328.116C227.427 328.02 227.328 327.918 227.243 327.812H227.187C227.203 327.908 227.216 328.022 227.227 328.156C227.238 328.284 227.243 328.398 227.243 328.5V330.26H226.395V324.028H227.083L227.203 324.604H227.243C227.328 324.486 227.43 324.377 227.547 324.276C227.664 324.174 227.806 324.094 227.971 324.036C228.136 323.977 228.328 323.948 228.547 323.948ZM228.347 324.644C228.08 324.644 227.867 324.697 227.707 324.804C227.547 324.905 227.43 325.06 227.355 325.268C227.286 325.47 227.248 325.729 227.243 326.044V326.172C227.243 326.502 227.278 326.785 227.347 327.02C227.416 327.249 227.531 327.425 227.691 327.548C227.856 327.665 228.08 327.724 228.363 327.724C228.603 327.724 228.798 327.66 228.947 327.532C229.102 327.398 229.216 327.214 229.291 326.98C229.366 326.745 229.403 326.473 229.403 326.164C229.403 325.694 229.318 325.324 229.147 325.052C228.976 324.78 228.71 324.644 228.347 324.644ZM232.204 328.34H231.356V322.26H232.204V328.34ZM237.336 326.18C237.336 326.537 237.288 326.854 237.192 327.132C237.096 327.409 236.96 327.644 236.784 327.836C236.608 328.028 236.394 328.174 236.144 328.276C235.893 328.372 235.61 328.42 235.296 328.42C235.008 328.42 234.741 328.372 234.496 328.276C234.25 328.174 234.037 328.028 233.856 327.836C233.68 327.644 233.541 327.409 233.44 327.132C233.338 326.854 233.288 326.534 233.288 326.172C233.288 325.697 233.368 325.294 233.528 324.964C233.693 324.633 233.928 324.382 234.232 324.212C234.541 324.036 234.904 323.948 235.32 323.948C235.714 323.948 236.061 324.036 236.36 324.212C236.664 324.382 236.901 324.633 237.072 324.964C237.248 325.294 237.336 325.7 237.336 326.18ZM234.16 326.18C234.16 326.5 234.2 326.777 234.28 327.012C234.36 327.241 234.485 327.417 234.656 327.54C234.826 327.662 235.045 327.724 235.312 327.724C235.578 327.724 235.797 327.662 235.968 327.54C236.138 327.417 236.264 327.241 236.344 327.012C236.424 326.777 236.464 326.5 236.464 326.18C236.464 325.849 236.421 325.572 236.336 325.348C236.256 325.124 236.13 324.953 235.96 324.836C235.794 324.713 235.576 324.652 235.304 324.652C234.904 324.652 234.613 324.785 234.432 325.052C234.25 325.318 234.16 325.694 234.16 326.18ZM240.083 323.948C240.627 323.948 241.032 324.068 241.299 324.308C241.565 324.542 241.699 324.913 241.699 325.42V328.34H241.099L240.931 327.74H240.899C240.776 327.894 240.648 328.022 240.515 328.124C240.387 328.225 240.237 328.3 240.067 328.348C239.901 328.396 239.699 328.42 239.459 328.42C239.203 328.42 238.971 328.374 238.763 328.284C238.56 328.188 238.4 328.044 238.283 327.852C238.165 327.654 238.107 327.409 238.107 327.116C238.107 326.678 238.272 326.345 238.603 326.116C238.939 325.886 239.448 325.761 240.131 325.74L240.867 325.716V325.476C240.867 325.156 240.795 324.932 240.651 324.804C240.507 324.676 240.304 324.612 240.043 324.612C239.819 324.612 239.605 324.644 239.403 324.708C239.2 324.772 239.008 324.849 238.827 324.94L238.555 324.324C238.757 324.217 238.989 324.129 239.251 324.06C239.517 323.985 239.795 323.948 240.083 323.948ZM240.283 326.284C239.792 326.305 239.451 326.388 239.259 326.532C239.072 326.67 238.979 326.868 238.979 327.124C238.979 327.348 239.045 327.51 239.179 327.612C239.317 327.713 239.491 327.764 239.699 327.764C240.035 327.764 240.312 327.67 240.531 327.484C240.749 327.297 240.859 327.017 240.859 326.644V326.268L240.283 326.284ZM244.484 328.42C243.967 328.42 243.548 328.233 243.228 327.86C242.914 327.486 242.756 326.932 242.756 326.196C242.756 325.454 242.916 324.894 243.236 324.516C243.556 324.137 243.978 323.948 244.5 323.948C244.719 323.948 244.908 323.977 245.068 324.036C245.234 324.089 245.375 324.164 245.492 324.26C245.615 324.356 245.719 324.462 245.804 324.58H245.852C245.842 324.505 245.828 324.398 245.812 324.26C245.796 324.116 245.788 323.988 245.788 323.876V322.26H246.636V328.34H245.972L245.828 327.764H245.788C245.708 327.886 245.607 327.998 245.484 328.1C245.367 328.196 245.226 328.273 245.06 328.332C244.895 328.39 244.703 328.42 244.484 328.42ZM244.684 327.724C245.1 327.724 245.394 327.609 245.564 327.38C245.735 327.145 245.82 326.796 245.82 326.332V326.204C245.82 325.697 245.738 325.31 245.572 325.044C245.412 324.777 245.114 324.644 244.676 324.644C244.33 324.644 244.068 324.785 243.892 325.068C243.716 325.345 243.628 325.726 243.628 326.212C243.628 326.697 243.716 327.07 243.892 327.332C244.068 327.593 244.332 327.724 244.684 327.724ZM253.843 326.18C253.843 326.537 253.795 326.854 253.699 327.132C253.603 327.409 253.467 327.644 253.291 327.836C253.115 328.028 252.902 328.174 252.651 328.276C252.401 328.372 252.118 328.42 251.803 328.42C251.515 328.42 251.249 328.372 251.003 328.276C250.758 328.174 250.545 328.028 250.363 327.836C250.187 327.644 250.049 327.409 249.947 327.132C249.846 326.854 249.795 326.534 249.795 326.172C249.795 325.697 249.875 325.294 250.035 324.964C250.201 324.633 250.435 324.382 250.739 324.212C251.049 324.036 251.411 323.948 251.827 323.948C252.222 323.948 252.569 324.036 252.867 324.212C253.171 324.382 253.409 324.633 253.579 324.964C253.755 325.294 253.843 325.7 253.843 326.18ZM250.667 326.18C250.667 326.5 250.707 326.777 250.787 327.012C250.867 327.241 250.993 327.417 251.163 327.54C251.334 327.662 251.553 327.724 251.819 327.724C252.086 327.724 252.305 327.662 252.475 327.54C252.646 327.417 252.771 327.241 252.851 327.012C252.931 326.777 252.971 326.5 252.971 326.18C252.971 325.849 252.929 325.572 252.843 325.348C252.763 325.124 252.638 324.953 252.467 324.836C252.302 324.713 252.083 324.652 251.811 324.652C251.411 324.652 251.121 324.785 250.939 325.052C250.758 325.318 250.667 325.694 250.667 326.18ZM257.046 323.948C257.121 323.948 257.204 323.953 257.294 323.964C257.385 323.969 257.46 323.977 257.518 323.988L257.43 324.78C257.372 324.764 257.302 324.75 257.222 324.74C257.142 324.729 257.068 324.724 256.998 324.724C256.838 324.724 256.684 324.756 256.534 324.82C256.39 324.878 256.26 324.966 256.142 325.084C256.025 325.196 255.932 325.334 255.862 325.5C255.798 325.665 255.766 325.854 255.766 326.068V328.34H254.918V324.028H255.59L255.702 324.796H255.734C255.825 324.641 255.934 324.5 256.062 324.372C256.19 324.244 256.337 324.142 256.502 324.068C256.668 323.988 256.849 323.948 257.046 323.948Z" fill="#7E879D"/>
<path d="M262.131 328.42C261.736 328.42 261.39 328.342 261.091 328.188C260.792 328.033 260.56 327.793 260.395 327.468C260.23 327.137 260.147 326.718 260.147 326.212C260.147 325.678 260.235 325.246 260.411 324.916C260.592 324.585 260.835 324.342 261.139 324.188C261.448 324.028 261.8 323.948 262.195 323.948C262.435 323.948 262.659 323.974 262.867 324.028C263.08 324.076 263.256 324.132 263.395 324.196L263.139 324.884C262.99 324.825 262.83 324.774 262.659 324.732C262.494 324.689 262.336 324.668 262.187 324.668C261.92 324.668 261.699 324.726 261.523 324.844C261.352 324.956 261.224 325.126 261.139 325.356C261.059 325.58 261.019 325.862 261.019 326.204C261.019 326.529 261.062 326.804 261.147 327.028C261.232 327.252 261.358 327.422 261.523 327.54C261.694 327.652 261.904 327.708 262.155 327.708C262.395 327.708 262.606 327.681 262.787 327.628C262.968 327.574 263.139 327.505 263.299 327.42V328.156C263.144 328.246 262.976 328.313 262.795 328.356C262.614 328.398 262.392 328.42 262.131 328.42ZM265.165 323.884C265.165 324.017 265.159 324.15 265.149 324.284C265.138 324.417 265.127 324.526 265.117 324.612H265.173C265.263 324.462 265.375 324.34 265.509 324.244C265.647 324.148 265.799 324.076 265.965 324.028C266.135 323.98 266.309 323.956 266.485 323.956C266.826 323.956 267.111 324.012 267.341 324.124C267.575 324.23 267.751 324.401 267.869 324.636C267.991 324.865 268.053 325.164 268.053 325.532V328.34H267.213V325.652C267.213 325.316 267.141 325.065 266.997 324.9C266.858 324.729 266.634 324.644 266.325 324.644C266.031 324.644 265.799 324.702 265.629 324.82C265.463 324.937 265.343 325.11 265.269 325.34C265.199 325.564 265.165 325.841 265.165 326.172V328.34H264.317V322.26H265.165V323.884ZM273.156 326.18C273.156 326.537 273.108 326.854 273.012 327.132C272.916 327.409 272.78 327.644 272.604 327.836C272.428 328.028 272.215 328.174 271.964 328.276C271.713 328.372 271.431 328.42 271.116 328.42C270.828 328.42 270.561 328.372 270.316 328.276C270.071 328.174 269.857 328.028 269.676 327.836C269.5 327.644 269.361 327.409 269.26 327.132C269.159 326.854 269.108 326.534 269.108 326.172C269.108 325.697 269.188 325.294 269.348 324.964C269.513 324.633 269.748 324.382 270.052 324.212C270.361 324.036 270.724 323.948 271.14 323.948C271.535 323.948 271.881 324.036 272.18 324.212C272.484 324.382 272.721 324.633 272.892 324.964C273.068 325.294 273.156 325.7 273.156 326.18ZM269.98 326.18C269.98 326.5 270.02 326.777 270.1 327.012C270.18 327.241 270.305 327.417 270.476 327.54C270.647 327.662 270.865 327.724 271.132 327.724C271.399 327.724 271.617 327.662 271.788 327.54C271.959 327.417 272.084 327.241 272.164 327.012C272.244 326.777 272.284 326.5 272.284 326.18C272.284 325.849 272.241 325.572 272.156 325.348C272.076 325.124 271.951 324.953 271.78 324.836C271.615 324.713 271.396 324.652 271.124 324.652C270.724 324.652 270.433 324.785 270.252 325.052C270.071 325.318 269.98 325.694 269.98 326.18ZM278.031 326.18C278.031 326.537 277.983 326.854 277.887 327.132C277.791 327.409 277.655 327.644 277.479 327.836C277.303 328.028 277.09 328.174 276.839 328.276C276.588 328.372 276.306 328.42 275.991 328.42C275.703 328.42 275.436 328.372 275.191 328.276C274.946 328.174 274.732 328.028 274.551 327.836C274.375 327.644 274.236 327.409 274.135 327.132C274.034 326.854 273.983 326.534 273.983 326.172C273.983 325.697 274.063 325.294 274.223 324.964C274.388 324.633 274.623 324.382 274.927 324.212C275.236 324.036 275.599 323.948 276.015 323.948C276.41 323.948 276.756 324.036 277.055 324.212C277.359 324.382 277.596 324.633 277.767 324.964C277.943 325.294 278.031 325.7 278.031 326.18ZM274.855 326.18C274.855 326.5 274.895 326.777 274.975 327.012C275.055 327.241 275.18 327.417 275.351 327.54C275.522 327.662 275.74 327.724 276.007 327.724C276.274 327.724 276.492 327.662 276.663 327.54C276.834 327.417 276.959 327.241 277.039 327.012C277.119 326.777 277.159 326.5 277.159 326.18C277.159 325.849 277.116 325.572 277.031 325.348C276.951 325.124 276.826 324.953 276.655 324.836C276.49 324.713 276.271 324.652 275.999 324.652C275.599 324.652 275.308 324.785 275.127 325.052C274.946 325.318 274.855 325.694 274.855 326.18ZM281.97 327.124C281.97 327.406 281.901 327.644 281.762 327.836C281.623 328.028 281.423 328.174 281.162 328.276C280.901 328.372 280.586 328.42 280.218 328.42C279.914 328.42 279.653 328.396 279.434 328.348C279.221 328.305 279.023 328.241 278.842 328.156V327.412C279.034 327.502 279.255 327.585 279.506 327.66C279.757 327.729 280.002 327.764 280.242 327.764C280.562 327.764 280.791 327.713 280.93 327.612C281.074 327.51 281.146 327.374 281.146 327.204C281.146 327.108 281.119 327.022 281.066 326.948C281.013 326.868 280.911 326.788 280.762 326.708C280.618 326.622 280.405 326.526 280.122 326.42C279.85 326.308 279.618 326.198 279.426 326.092C279.234 325.98 279.087 325.849 278.986 325.7C278.885 325.545 278.834 325.348 278.834 325.108C278.834 324.734 278.983 324.449 279.282 324.252C279.586 324.049 279.986 323.948 280.482 323.948C280.743 323.948 280.989 323.974 281.218 324.028C281.453 324.076 281.679 324.15 281.898 324.252L281.618 324.9C281.495 324.841 281.367 324.793 281.234 324.756C281.106 324.713 280.975 324.678 280.842 324.652C280.714 324.625 280.581 324.612 280.442 324.612C280.186 324.612 279.991 324.652 279.858 324.732C279.725 324.812 279.658 324.924 279.658 325.068C279.658 325.169 279.687 325.257 279.746 325.332C279.81 325.406 279.919 325.481 280.074 325.556C280.229 325.63 280.439 325.721 280.706 325.828C280.973 325.929 281.199 326.033 281.386 326.14C281.578 326.246 281.722 326.377 281.818 326.532C281.919 326.686 281.97 326.884 281.97 327.124ZM284.677 323.948C285.056 323.948 285.381 324.028 285.653 324.188C285.925 324.342 286.133 324.566 286.277 324.86C286.426 325.153 286.501 325.5 286.501 325.9V326.364H283.605C283.616 326.806 283.73 327.145 283.949 327.38C284.173 327.614 284.485 327.732 284.885 327.732C285.162 327.732 285.408 327.708 285.621 327.66C285.84 327.606 286.064 327.529 286.293 327.428V328.132C286.08 328.228 285.861 328.3 285.637 328.348C285.418 328.396 285.157 328.42 284.853 328.42C284.437 328.42 284.069 328.337 283.749 328.172C283.429 328.006 283.178 327.761 282.997 327.436C282.821 327.105 282.733 326.7 282.733 326.22C282.733 325.734 282.813 325.324 282.973 324.988C283.138 324.652 283.365 324.396 283.653 324.22C283.946 324.038 284.288 323.948 284.677 323.948ZM284.677 324.604C284.373 324.604 284.128 324.702 283.941 324.9C283.76 325.097 283.653 325.377 283.621 325.74H285.653C285.653 325.516 285.618 325.318 285.549 325.148C285.48 324.977 285.373 324.844 285.229 324.748C285.085 324.652 284.901 324.604 284.677 324.604ZM291.741 324.676H290.677V328.34H289.829V324.676H289.101V324.276L289.829 324.012V323.74C289.829 323.372 289.885 323.078 289.997 322.86C290.114 322.636 290.28 322.473 290.493 322.372C290.706 322.27 290.965 322.22 291.269 322.22C291.456 322.22 291.626 322.236 291.781 322.268C291.936 322.3 292.066 322.334 292.173 322.372L291.957 323.02C291.872 322.993 291.773 322.969 291.661 322.948C291.549 322.921 291.432 322.908 291.309 322.908C291.096 322.908 290.936 322.977 290.829 323.116C290.728 323.254 290.677 323.465 290.677 323.748V324.028H291.741V324.676ZM293.341 324.028V328.34H292.493V324.028H293.341ZM292.925 322.388C293.053 322.388 293.165 322.425 293.261 322.5C293.357 322.574 293.405 322.7 293.405 322.876C293.405 323.046 293.357 323.172 293.261 323.252C293.165 323.326 293.053 323.364 292.925 323.364C292.786 323.364 292.669 323.326 292.573 323.252C292.482 323.172 292.437 323.046 292.437 322.876C292.437 322.7 292.482 322.574 292.573 322.5C292.669 322.425 292.786 322.388 292.925 322.388ZM295.516 328.34H294.668V322.26H295.516V328.34ZM298.544 323.948C298.923 323.948 299.248 324.028 299.52 324.188C299.792 324.342 300 324.566 300.144 324.86C300.293 325.153 300.368 325.5 300.368 325.9V326.364H297.472C297.483 326.806 297.597 327.145 297.816 327.38C298.04 327.614 298.352 327.732 298.752 327.732C299.029 327.732 299.275 327.708 299.488 327.66C299.707 327.606 299.931 327.529 300.16 327.428V328.132C299.947 328.228 299.728 328.3 299.504 328.348C299.285 328.396 299.024 328.42 298.72 328.42C298.304 328.42 297.936 328.337 297.616 328.172C297.296 328.006 297.045 327.761 296.864 327.436C296.688 327.105 296.6 326.7 296.6 326.22C296.6 325.734 296.68 325.324 296.84 324.988C297.005 324.652 297.232 324.396 297.52 324.22C297.813 324.038 298.155 323.948 298.544 323.948ZM298.544 324.604C298.24 324.604 297.995 324.702 297.808 324.9C297.627 325.097 297.52 325.377 297.488 325.74H299.52C299.52 325.516 299.485 325.318 299.416 325.148C299.347 324.977 299.24 324.844 299.096 324.748C298.952 324.652 298.768 324.604 298.544 324.604ZM304.29 327.124C304.29 327.406 304.221 327.644 304.082 327.836C303.944 328.028 303.744 328.174 303.482 328.276C303.221 328.372 302.906 328.42 302.538 328.42C302.234 328.42 301.973 328.396 301.754 328.348C301.541 328.305 301.344 328.241 301.162 328.156V327.412C301.354 327.502 301.576 327.585 301.826 327.66C302.077 327.729 302.322 327.764 302.562 327.764C302.882 327.764 303.112 327.713 303.25 327.612C303.394 327.51 303.466 327.374 303.466 327.204C303.466 327.108 303.44 327.022 303.386 326.948C303.333 326.868 303.232 326.788 303.082 326.708C302.938 326.622 302.725 326.526 302.442 326.42C302.17 326.308 301.938 326.198 301.746 326.092C301.554 325.98 301.408 325.849 301.306 325.7C301.205 325.545 301.154 325.348 301.154 325.108C301.154 324.734 301.304 324.449 301.602 324.252C301.906 324.049 302.306 323.948 302.802 323.948C303.064 323.948 303.309 323.974 303.538 324.028C303.773 324.076 304 324.15 304.218 324.252L303.938 324.9C303.816 324.841 303.688 324.793 303.554 324.756C303.426 324.713 303.296 324.678 303.162 324.652C303.034 324.625 302.901 324.612 302.762 324.612C302.506 324.612 302.312 324.652 302.178 324.732C302.045 324.812 301.978 324.924 301.978 325.068C301.978 325.169 302.008 325.257 302.066 325.332C302.13 325.406 302.24 325.481 302.394 325.556C302.549 325.63 302.76 325.721 303.026 325.828C303.293 325.929 303.52 326.033 303.706 326.14C303.898 326.246 304.042 326.377 304.138 326.532C304.24 326.686 304.29 326.884 304.29 327.124Z" fill="#3586FF"/>
<rect x="170.59" y="354.871" width="89" height="10.1197" rx="5.05985" stroke="#7E879D" stroke-opacity="0.25"/>
<rect x="173.09" y="357.707" width="43" height="4.44788" rx="2.22394" fill="#3586FF"/>
</g>
<g filter="url(#filter2_d_2015_344)">
<path d="M297.2 362.154C293.195 362.154 289.918 365.43 289.918 369.433V398.546V413.103V434.938C289.918 438.941 293.195 442.216 297.2 442.216H348.173C352.178 442.216 355.455 438.941 355.455 434.938V413.103V398.546V383.989L333.609 362.154H297.2Z" fill="#E6F0FC"/>
</g>
<g filter="url(#filter3_d_2015_344)">
<path d="M336.571 408.857L366.563 436.879L352.067 438.13L360.314 456.394L354.816 458.896L346.818 440.382L336.571 450.139V408.857Z" fill="#4E5567"/>
</g>
<path d="M355.455 383.989L333.609 362.154V376.711C333.609 380.714 336.886 383.989 340.891 383.989H355.455Z" fill="#C8DAF0"/>
<g filter="url(#filter4_dd_2015_344)">
<g clip-path="url(#clip22_2015_344)">
<rect x="485" y="174" width="194" height="223" rx="8" fill="white"/>
<rect opacity="0.25" x="469.48" y="167.31" width="242.777" height="24.53" fill="#7E879D"/>
<ellipse opacity="0.25" cx="499.966" cy="183.478" rx="3.88" ry="3.9025" fill="#7E879D"/>
<ellipse opacity="0.25" cx="511.051" cy="183.478" rx="3.88" ry="3.9025" fill="#7E879D"/>
<ellipse opacity="0.25" cx="522.137" cy="183.478" rx="3.88" ry="3.9025" fill="#7E879D"/>
<rect x="496" y="201" width="171" height="59" rx="3" fill="#E6F0FC"/>
<g opacity="0.25" clip-path="url(#clip23_2015_344)">
<rect x="577.8" y="224.8" width="9.6" height="8.4" fill="white"/>
<path d="M582 220C577.037 220 573 224.037 573 229C573 233.963 577.037 238 582 238C586.963 238 591 233.963 591 229C591 224.037 586.963 220 582 220ZM585.237 229.402L580.287 232.392C580.066 232.526 579.78 232.453 579.646 232.232C579.603 232.159 579.581 232.076 579.581 231.99V226.01C579.581 225.75 579.789 225.543 580.044 225.543C580.131 225.543 580.213 225.564 580.287 225.608L585.237 228.598C585.457 228.732 585.531 229.022 585.392 229.247C585.353 229.307 585.301 229.363 585.237 229.402Z" fill="#3586FF"/>
</g>
<rect x="558.166" y="296.455" width="46.56" height="13.38" rx="2" fill="#3586FF"/>
<path d="M572.947 302.98C572.947 303.38 572.871 303.715 572.717 303.985C572.567 304.255 572.349 304.458 572.062 304.595C571.779 304.732 571.436 304.8 571.032 304.8H570.027V301.23H571.137C571.507 301.23 571.827 301.297 572.097 301.43C572.367 301.563 572.576 301.76 572.722 302.02C572.872 302.277 572.947 302.597 572.947 302.98ZM572.277 303C572.277 302.717 572.234 302.483 572.147 302.3C572.061 302.117 571.932 301.982 571.762 301.895C571.592 301.805 571.384 301.76 571.137 301.76H570.667V304.265H571.052C571.466 304.265 571.772 304.16 571.972 303.95C572.176 303.737 572.277 303.42 572.277 303ZM576.069 303.44C576.069 303.667 576.039 303.867 575.979 304.04C575.919 304.213 575.832 304.362 575.719 304.485C575.609 304.605 575.472 304.697 575.309 304.76C575.149 304.82 574.971 304.85 574.774 304.85C574.587 304.85 574.416 304.82 574.259 304.76C574.102 304.697 573.966 304.605 573.849 304.485C573.736 304.362 573.647 304.213 573.584 304.04C573.521 303.867 573.489 303.667 573.489 303.44C573.489 303.14 573.541 302.887 573.644 302.68C573.747 302.47 573.896 302.312 574.089 302.205C574.286 302.095 574.517 302.04 574.784 302.04C575.037 302.04 575.259 302.095 575.449 302.205C575.642 302.312 575.794 302.47 575.904 302.68C576.014 302.887 576.069 303.14 576.069 303.44ZM574.134 303.44C574.134 303.63 574.156 303.793 574.199 303.93C574.246 304.063 574.316 304.165 574.409 304.235C574.506 304.305 574.629 304.34 574.779 304.34C574.932 304.34 575.056 304.305 575.149 304.235C575.246 304.165 575.316 304.063 575.359 303.93C575.402 303.793 575.424 303.63 575.424 303.44C575.424 303.247 575.401 303.085 575.354 302.955C575.311 302.822 575.241 302.722 575.144 302.655C575.051 302.585 574.929 302.55 574.779 302.55C574.552 302.55 574.387 302.627 574.284 302.78C574.184 302.933 574.134 303.153 574.134 303.44ZM578.542 303.635C578.526 303.572 578.506 303.493 578.482 303.4C578.459 303.303 578.434 303.203 578.407 303.1C578.384 302.997 578.361 302.902 578.337 302.815C578.317 302.728 578.304 302.662 578.297 302.615H578.277C578.267 302.662 578.252 302.728 578.232 302.815C578.212 302.902 578.191 302.997 578.167 303.1C578.144 303.203 578.119 303.303 578.092 303.4C578.069 303.497 578.049 303.577 578.032 303.64L577.717 304.8H577.027L576.267 302.085H576.902L577.237 303.38C577.261 303.467 577.282 303.565 577.302 303.675C577.326 303.785 577.346 303.892 577.362 303.995C577.379 304.095 577.391 304.177 577.397 304.24H577.417C577.424 304.197 577.432 304.14 577.442 304.07C577.452 303.997 577.464 303.922 577.477 303.845C577.494 303.765 577.509 303.692 577.522 303.625C577.539 303.558 577.552 303.507 577.562 303.47L577.952 302.085H578.642L579.017 303.47C579.034 303.53 579.052 303.608 579.072 303.705C579.092 303.802 579.111 303.898 579.127 303.995C579.144 304.092 579.154 304.172 579.157 304.235H579.177C579.184 304.178 579.196 304.102 579.212 304.005C579.229 303.905 579.249 303.798 579.272 303.685C579.296 303.572 579.321 303.47 579.347 303.38L579.687 302.085H580.312L579.542 304.8H578.842L578.542 303.635ZM582.223 302.04C582.526 302.04 582.763 302.118 582.933 302.275C583.106 302.432 583.193 302.685 583.193 303.035V304.8H582.563V303.16C582.563 302.957 582.523 302.805 582.443 302.705C582.363 302.602 582.236 302.55 582.063 302.55C581.81 302.55 581.636 302.63 581.543 302.79C581.45 302.947 581.403 303.175 581.403 303.475V304.8H580.773V302.09H581.258L581.348 302.445H581.383C581.443 302.352 581.516 302.275 581.603 302.215C581.69 302.155 581.786 302.112 581.893 302.085C582 302.055 582.11 302.04 582.223 302.04ZM584.611 304.8H583.981V301H584.611V304.8ZM587.836 303.44C587.836 303.667 587.806 303.867 587.746 304.04C587.686 304.213 587.6 304.362 587.486 304.485C587.376 304.605 587.24 304.697 587.076 304.76C586.916 304.82 586.738 304.85 586.541 304.85C586.355 304.85 586.183 304.82 586.026 304.76C585.87 304.697 585.733 304.605 585.616 304.485C585.503 304.362 585.415 304.213 585.351 304.04C585.288 303.867 585.256 303.667 585.256 303.44C585.256 303.14 585.308 302.887 585.411 302.68C585.515 302.47 585.663 302.312 585.856 302.205C586.053 302.095 586.285 302.04 586.551 302.04C586.805 302.04 587.026 302.095 587.216 302.205C587.41 302.312 587.561 302.47 587.671 302.68C587.781 302.887 587.836 303.14 587.836 303.44ZM585.901 303.44C585.901 303.63 585.923 303.793 585.966 303.93C586.013 304.063 586.083 304.165 586.176 304.235C586.273 304.305 586.396 304.34 586.546 304.34C586.7 304.34 586.823 304.305 586.916 304.235C587.013 304.165 587.083 304.063 587.126 303.93C587.17 303.793 587.191 303.63 587.191 303.44C587.191 303.247 587.168 303.085 587.121 302.955C587.078 302.822 587.008 302.722 586.911 302.655C586.818 302.585 586.696 302.55 586.546 302.55C586.32 302.55 586.155 302.627 586.051 302.78C585.951 302.933 585.901 303.153 585.901 303.44ZM589.568 302.04C589.918 302.04 590.183 302.117 590.363 302.27C590.546 302.42 590.638 302.657 590.638 302.98V304.8H590.193L590.068 304.425H590.048C589.971 304.522 589.891 304.603 589.808 304.67C589.728 304.733 589.634 304.778 589.528 304.805C589.424 304.835 589.298 304.85 589.148 304.85C588.988 304.85 588.843 304.82 588.713 304.76C588.586 304.7 588.486 304.608 588.413 304.485C588.339 304.358 588.303 304.2 588.303 304.01C588.303 303.73 588.404 303.52 588.608 303.38C588.814 303.237 589.126 303.158 589.543 303.145L590.013 303.13V302.995C590.013 302.822 589.971 302.698 589.888 302.625C589.804 302.552 589.688 302.515 589.538 302.515C589.401 302.515 589.269 302.535 589.143 302.575C589.016 302.615 588.893 302.662 588.773 302.715L588.573 302.275C588.706 302.205 588.858 302.148 589.028 302.105C589.201 302.062 589.381 302.04 589.568 302.04ZM589.683 303.53C589.406 303.54 589.214 303.588 589.108 303.675C589.001 303.758 588.948 303.872 588.948 304.015C588.948 304.142 588.986 304.233 589.063 304.29C589.139 304.347 589.238 304.375 589.358 304.375C589.541 304.375 589.696 304.323 589.823 304.22C589.949 304.113 590.013 303.957 590.013 303.75V303.52L589.683 303.53ZM592.322 304.85C592.009 304.85 591.754 304.733 591.557 304.5C591.364 304.263 591.267 303.913 591.267 303.45C591.267 302.987 591.366 302.637 591.562 302.4C591.759 302.16 592.017 302.04 592.337 302.04C592.471 302.04 592.587 302.058 592.687 302.095C592.791 302.128 592.879 302.175 592.952 302.235C593.026 302.295 593.087 302.362 593.137 302.435H593.167C593.157 302.388 593.147 302.317 593.137 302.22C593.127 302.123 593.122 302.033 593.122 301.95V301H593.752V304.8H593.262L593.147 304.445H593.122C593.072 304.518 593.011 304.587 592.937 304.65C592.864 304.71 592.777 304.758 592.677 304.795C592.577 304.832 592.459 304.85 592.322 304.85ZM592.512 304.34C592.746 304.34 592.911 304.273 593.007 304.14C593.104 304.007 593.152 303.805 593.152 303.535V303.455C593.152 303.162 593.106 302.938 593.012 302.785C592.922 302.632 592.752 302.555 592.502 302.555C592.312 302.555 592.166 302.635 592.062 302.795C591.959 302.952 591.907 303.173 591.907 303.46C591.907 303.747 591.959 303.965 592.062 304.115C592.166 304.265 592.316 304.34 592.512 304.34Z" fill="white"/>
<rect x="496.086" y="266.235" width="172.937" height="17.84" rx="3" fill="#E6F0FC"/>
<rect opacity="0.18" x="500.52" y="270.695" width="56.5371" height="3.345" rx="1" fill="#3586FF"/>
<rect opacity="0.18" x="500.52" y="276.27" width="26.6057" height="3.345" rx="1" fill="#3586FF"/>
<rect opacity="0.18" x="530.451" y="276.27" width="26.6057" height="3.345" rx="1" fill="#3586FF"/>
<rect opacity="0.18" x="560.383" y="276.27" width="26.6057" height="3.345" rx="1" fill="#3586FF"/>
<rect x="496.086" y="330.1" width="172.937" height="53.52" rx="3" fill="#E6F0FC"/>
<rect x="500.52" y="343.48" width="164.069" height="34.565" rx="1" fill="#F8FAFD"/>
<rect opacity="0.18" x="500.52" y="334.56" width="26.6057" height="5.575" rx="1" fill="#3586FF"/>
<rect opacity="0.18" x="530.451" y="334.56" width="26.6057" height="5.575" rx="1" fill="#3586FF"/>
<rect opacity="0.18" x="560.383" y="334.56" width="26.6057" height="5.575" rx="1" fill="#3586FF"/>
</g>
</g>
<rect opacity="0.1" x="167" width="56" height="56" rx="12" fill="white"/>
<defs>
<filter id="filter0_dd_2015_344" x="262" y="52" width="347" height="315" filterUnits="userSpaceOnUse" color-interpolation-filters="sRGB">
<feFlood flood-opacity="0" result="BackgroundImageFix"/>
<feColorMatrix in="SourceAlpha" type="matrix" values="0 0 0 0 0 0 0 0 0 0 0 0 0 0 0 0 0 0 127 0" result="hardAlpha"/>
<feOffset dy="1"/>
<feGaussianBlur stdDeviation="1"/>
<feComposite in2="hardAlpha" operator="out"/>
<feColorMatrix type="matrix" values="0 0 0 0 0.0941176 0 0 0 0 0.129412 0 0 0 0 0.215686 0 0 0 0.05 0"/>
<feBlend mode="normal" in2="BackgroundImageFix" result="effect1_dropShadow_2015_344"/>
<feColorMatrix in="SourceAlpha" type="matrix" values="0 0 0 0 0 0 0 0 0 0 0 0 0 0 0 0 0 0 127 0" result="hardAlpha"/>
<feMorphology radius="5" operator="erode" in="SourceAlpha" result="effect2_dropShadow_2015_344"/>
<feOffset dy="10"/>
<feGaussianBlur stdDeviation="12"/>
<feComposite in2="hardAlpha" operator="out"/>
<feColorMatrix type="matrix" values="0 0 0 0 0.027451 0 0 0 0 0.152941 0 0 0 0 0.470588 0 0 0 0.25 0"/>
<feBlend mode="normal" in2="effect1_dropShadow_2015_344" result="effect2_dropShadow_2015_344"/>
<feBlend mode="normal" in="SourceGraphic" in2="effect2_dropShadow_2015_344" result="shape"/>
</filter>
<filter id="filter1_dd_2015_344" x="79.0904" y="209.927" width="294.7" height="233.819" filterUnits="userSpaceOnUse" color-interpolation-filters="sRGB">
<feFlood flood-opacity="0" result="BackgroundImageFix"/>
<feColorMatrix in="SourceAlpha" type="matrix" values="0 0 0 0 0 0 0 0 0 0 0 0 0 0 0 0 0 0 127 0" result="hardAlpha"/>
<feOffset dy="1"/>
<feGaussianBlur stdDeviation="1"/>
<feComposite in2="hardAlpha" operator="out"/>
<feColorMatrix type="matrix" values="0 0 0 0 0.0941176 0 0 0 0 0.129412 0 0 0 0 0.215686 0 0 0 0.05 0"/>
<feBlend mode="normal" in2="BackgroundImageFix" result="effect1_dropShadow_2015_344"/>
<feColorMatrix in="SourceAlpha" type="matrix" values="0 0 0 0 0 0 0 0 0 0 0 0 0 0 0 0 0 0 127 0" result="hardAlpha"/>
<feMorphology radius="27" operator="erode" in="SourceAlpha" result="effect2_dropShadow_2015_344"/>
<feOffset dx="14" dy="25"/>
<feGaussianBlur stdDeviation="19"/>
<feComposite in2="hardAlpha" operator="out"/>
<feColorMatrix type="matrix" values="0 0 0 0 0.027451 0 0 0 0 0.152941 0 0 0 0 0.470588 0 0 0 0.75 0"/>
<feBlend mode="normal" in2="effect1_dropShadow_2015_344" result="effect2_dropShadow_2015_344"/>
<feBlend mode="normal" in="SourceGraphic" in2="effect2_dropShadow_2015_344" result="shape"/>
</filter>
<filter id="filter2_d_2015_344" x="265.918" y="350.154" width="113.536" height="128.062" filterUnits="userSpaceOnUse" color-interpolation-filters="sRGB">
<feFlood flood-opacity="0" result="BackgroundImageFix"/>
<feColorMatrix in="SourceAlpha" type="matrix" values="0 0 0 0 0 0 0 0 0 0 0 0 0 0 0 0 0 0 127 0" result="hardAlpha"/>
<feOffset dy="12"/>
<feGaussianBlur stdDeviation="12"/>
<feComposite in2="hardAlpha" operator="out"/>
<feColorMatrix type="matrix" values="0 0 0 0 0.0758333 0 0 0 0 0.184722 0 0 0 0 0.379167 0 0 0 0.01 0"/>
<feBlend mode="normal" in2="BackgroundImageFix" result="effect1_dropShadow_2015_344"/>
<feBlend mode="normal" in="SourceGraphic" in2="effect1_dropShadow_2015_344" result="shape"/>
</filter>
<filter id="filter3_d_2015_344" x="312.571" y="396.857" width="77.9912" height="98.0386" filterUnits="userSpaceOnUse" color-interpolation-filters="sRGB">
<feFlood flood-opacity="0" result="BackgroundImageFix"/>
<feColorMatrix in="SourceAlpha" type="matrix" values="0 0 0 0 0 0 0 0 0 0 0 0 0 0 0 0 0 0 127 0" result="hardAlpha"/>
<feOffset dy="12"/>
<feGaussianBlur stdDeviation="12"/>
<feComposite in2="hardAlpha" operator="out"/>
<feColorMatrix type="matrix" values="0 0 0 0 0.0758333 0 0 0 0 0.184722 0 0 0 0 0.379167 0 0 0 0.17 0"/>
<feBlend mode="normal" in2="BackgroundImageFix" result="effect1_dropShadow_2015_344"/>
<feBlend mode="normal" in="SourceGraphic" in2="effect1_dropShadow_2015_344" result="shape"/>
</filter>
<filter id="filter4_dd_2015_344" x="472" y="173" width="220" height="262" filterUnits="userSpaceOnUse" color-interpolation-filters="sRGB">
<feFlood flood-opacity="0" result="BackgroundImageFix"/>
<feColorMatrix in="SourceAlpha" type="matrix" values="0 0 0 0 0 0 0 0 0 0 0 0 0 0 0 0 0 0 127 0" result="hardAlpha"/>
<feOffset dy="1"/>
<feGaussianBlur stdDeviation="1"/>
<feComposite in2="hardAlpha" operator="out"/>
<feColorMatrix type="matrix" values="0 0 0 0 0.0941176 0 0 0 0 0.129412 0 0 0 0 0.215686 0 0 0 0.05 0"/>
<feBlend mode="normal" in2="BackgroundImageFix" result="effect1_dropShadow_2015_344"/>
<feColorMatrix in="SourceAlpha" type="matrix" values="0 0 0 0 0 0 0 0 0 0 0 0 0 0 0 0 0 0 127 0" result="hardAlpha"/>
<feMorphology radius="27" operator="erode" in="SourceAlpha" result="effect2_dropShadow_2015_344"/>
<feOffset dy="25"/>
<feGaussianBlur stdDeviation="20"/>
<feComposite in2="hardAlpha" operator="out"/>
<feColorMatrix type="matrix" values="0 0 0 0 0.027451 0 0 0 0 0.152941 0 0 0 0 0.470588 0 0 0 0.75 0"/>
<feBlend mode="normal" in2="effect1_dropShadow_2015_344" result="effect2_dropShadow_2015_344"/>
<feBlend mode="normal" in="SourceGraphic" in2="effect2_dropShadow_2015_344" result="shape"/>
</filter>
<clipPath id="clip0_2015_344">
<rect x="281" y="61" width="309" height="277" rx="8" fill="white"/>
</clipPath>
<clipPath id="clip1_2015_344">
<rect width="22.4" height="28" fill="white" transform="translate(376.255 224.98)"/>
</clipPath>
<clipPath id="clip2_2015_344">
<rect width="22.4" height="28" fill="white" transform="translate(414.655 224.98)"/>
</clipPath>
<clipPath id="clip3_2015_344">
<rect width="22.4" height="28" fill="white" transform="translate(453.055 224.98)"/>
</clipPath>
<clipPath id="clip4_2015_344">
<rect width="22.4" height="28" fill="white" transform="translate(491.455 224.98)"/>
</clipPath>
<clipPath id="clip5_2015_344">
<rect width="22.4" height="28" fill="white" transform="translate(529.855 224.98)"/>
</clipPath>
<clipPath id="clip6_2015_344">
<rect width="22.4" height="28" fill="white" transform="translate(376.255 268.98)"/>
</clipPath>
<clipPath id="clip7_2015_344">
<rect width="22.4" height="28" fill="white" transform="translate(414.655 268.98)"/>
</clipPath>
<clipPath id="clip8_2015_344">
<rect width="22.4" height="28" fill="white" transform="translate(453.055 268.98)"/>
</clipPath>
<clipPath id="clip9_2015_344">
<rect width="22.4" height="28" fill="white" transform="translate(491.455 268.98)"/>
</clipPath>
<clipPath id="clip10_2015_344">
<rect width="22.4" height="28" fill="white" transform="translate(529.855 268.98)"/>
</clipPath>
<clipPath id="clip11_2015_344">
<rect width="24" height="19" fill="white" transform="translate(376.255 151.558)"/>
</clipPath>
<clipPath id="clip12_2015_344">
<rect width="24" height="19" fill="white" transform="translate(414.255 151.558)"/>
</clipPath>
<clipPath id="clip13_2015_344">
<rect width="24" height="19" fill="white" transform="translate(452.255 151.558)"/>
</clipPath>
<clipPath id="clip14_2015_344">
<rect width="24" height="19" fill="white" transform="translate(490.255 151.558)"/>
</clipPath>
<clipPath id="clip15_2015_344">
<rect width="24" height="19" fill="white" transform="translate(528.255 151.558)"/>
</clipPath>
<clipPath id="clip16_2015_344">
<rect width="24" height="19" fill="white" transform="translate(376.255 184.558)"/>
</clipPath>
<clipPath id="clip17_2015_344">
<rect width="24" height="19" fill="white" transform="translate(414.255 184.558)"/>
</clipPath>
<clipPath id="clip18_2015_344">
<rect width="24" height="19" fill="white" transform="translate(452.255 184.558)"/>
</clipPath>
<clipPath id="clip19_2015_344">
<rect width="24" height="19" fill="white" transform="translate(490.255 184.558)"/>
</clipPath>
<clipPath id="clip20_2015_344">
<rect width="24" height="19" fill="white" transform="translate(528.255 184.558)"/>
</clipPath>
<clipPath id="clip21_2015_344">
<rect width="5" height="5" fill="white" transform="translate(379 122)"/>
</clipPath>
<clipPath id="clip22_2015_344">
<rect x="485" y="174" width="194" height="223" rx="8" fill="white"/>
</clipPath>
<clipPath id="clip23_2015_344">
<rect width="18" height="18" fill="white" transform="translate(573 220)"/>
</clipPath>
</defs>
</svg>
