<svg width="219" height="39" viewBox="0 0 219 39" fill="none" xmlns="http://www.w3.org/2000/svg">
<g clip-path="url(#clip0_5304_2162)">
<path d="M43.4582 32.4104H31.689L25.0265 25.8208L28.3408 22.5259L28.8143 22.0553L30.8773 20.0044L36.1194 25.2156L42.8495 31.8725L43.4582 32.4104Z" fill="url(#paint0_linear_5304_2162)"/>
<path d="M51 0L20.7653 30.0569C20.6976 30.1241 20.63 30.225 20.5285 30.2922L11.7354 39H0L6.66247 32.4103L19.1081 20.0716L39.2646 0H51Z" fill="url(#paint1_linear_5304_2162)"/>
<path d="M26.3793 24.4758L22.8621 28.0059L21.4078 29.4516L20.5285 30.3258L20.5962 30.2585C22.1519 28.6783 22.9635 26.5939 22.9635 24.5094C22.9635 22.3913 22.1519 20.2732 20.5285 18.693L7.98145 6.21973H19.7507L26.3793 12.8094C29.626 16.037 29.626 21.2482 26.3793 24.4758Z" fill="url(#paint2_linear_5304_2162)"/>
</g>
<path d="M51.624 27.0001L44.424 10.2001H48.696L51.12 16.3681C52.048 18.6881 52.728 20.6321 53.16 22.2001C53.56 20.6801 54.224 18.7361 55.152 16.3681L57.552 10.2001H61.8L54.576 27.0001H51.624Z" fill="#4E5567"/>
<path d="M62.7548 10.2001H66.4028V27.0001H62.7548V10.2001Z" fill="#4E5567"/>
<path d="M74.4973 27.2161C72.6733 27.2161 71.0013 27.0961 69.4813 26.8561V10.2961C71.2413 10.0881 72.9613 9.98411 74.6413 9.98411C77.5213 9.98411 79.8013 10.7681 81.4813 12.3361C83.1613 13.9041 84.0013 15.9841 84.0013 18.5761C84.0013 21.2161 83.1293 23.3201 81.3853 24.8881C79.6573 26.4401 77.3613 27.2161 74.4973 27.2161ZM74.7133 13.3681C74.0733 13.3681 73.5453 13.3841 73.1293 13.4161V23.7841C73.4493 23.8161 73.9933 23.8321 74.7613 23.8321C76.3773 23.8321 77.6733 23.3681 78.6493 22.4401C79.6253 21.5121 80.1133 20.2401 80.1133 18.6241C80.1133 16.9921 79.6253 15.7121 78.6493 14.7841C77.6733 13.8401 76.3613 13.3681 74.7133 13.3681Z" fill="#4E5567"/>
<path d="M96.4028 27.0001H86.7548V10.2001H96.4028V13.6081H90.4028V16.8721H96.4028V20.0161H90.4028V23.5921H96.4028V27.0001Z" fill="#4E5567"/>
<path d="M107.644 27.3121C105.244 27.3121 103.196 26.5041 101.5 24.8881C99.8041 23.2721 98.9561 21.1761 98.9561 18.6001C98.9561 16.0721 99.8041 13.9921 101.5 12.3601C103.196 10.7281 105.244 9.91211 107.644 9.91211C110.028 9.91211 112.068 10.7201 113.764 12.3361C115.476 13.9521 116.332 16.0321 116.332 18.5761C116.332 21.1521 115.476 23.2561 113.764 24.8881C112.068 26.5041 110.028 27.3121 107.644 27.3121ZM104.26 14.9761C103.316 15.9201 102.844 17.1361 102.844 18.6241C102.844 20.1121 103.316 21.3281 104.26 22.2721C105.204 23.2001 106.332 23.6641 107.644 23.6641C108.956 23.6641 110.084 23.1921 111.028 22.2481C111.972 21.3041 112.444 20.0801 112.444 18.5761C112.444 17.0881 111.972 15.8801 111.028 14.9521C110.084 14.0241 108.956 13.5601 107.644 13.5601C106.332 13.5601 105.204 14.0321 104.26 14.9761Z" fill="#4E5567"/>
<path d="M118.717 15.2161C118.717 13.6321 119.325 12.3521 120.541 11.3761C121.757 10.4001 123.381 9.91211 125.413 9.91211C126.517 9.91211 127.597 10.0081 128.653 10.2001V13.8001C127.693 13.4481 126.493 13.2721 125.053 13.2721C124.269 13.2721 123.645 13.4321 123.181 13.7521C122.717 14.0561 122.485 14.4641 122.485 14.9761C122.485 15.7761 123.301 16.4321 124.933 16.9441C126.501 17.4241 127.661 18.0641 128.413 18.8641C129.181 19.6641 129.565 20.7281 129.565 22.0561C129.565 23.7201 128.949 25.0161 127.717 25.9441C126.501 26.8561 124.909 27.3121 122.941 27.3121C121.517 27.3121 120.181 27.1921 118.933 26.9521V23.4961C120.309 23.8801 121.597 24.0721 122.797 24.0721C123.741 24.0721 124.469 23.9041 124.981 23.5681C125.509 23.2321 125.773 22.7681 125.773 22.1761C125.773 21.6801 125.573 21.2801 125.173 20.9761C124.789 20.6721 124.141 20.3761 123.229 20.0881C122.621 19.8961 122.085 19.6881 121.621 19.4641C121.157 19.2401 120.685 18.9441 120.205 18.5761C119.741 18.1921 119.373 17.7201 119.101 17.1601C118.845 16.5841 118.717 15.9361 118.717 15.2161Z" fill="#4E5567"/>
<path d="M135.825 27.0001H132.177V10.2001H135.825V16.5601H142.497V10.2001H146.145V27.0001H142.497V20.1841H135.825V27.0001Z" fill="#4E5567"/>
<path d="M147.2 27.0001L154.04 10.2001H157.688L164.528 27.0001H160.52L158.96 23.3281H152.72L151.184 27.0001H147.2ZM153.848 20.0881H157.808C156.96 18.0241 156.296 16.1041 155.816 14.3281C155.24 16.4241 154.584 18.3441 153.848 20.0881Z" fill="#4E5567"/>
<path d="M169.2 27.0001H165.552V10.3201C166.912 10.1441 168.608 10.0561 170.64 10.0561C172.912 10.0561 174.672 10.6081 175.92 11.7121C177.168 12.8001 177.792 14.1521 177.792 15.7681C177.792 16.9521 177.536 18.0161 177.024 18.9601C176.512 19.8881 175.712 20.5361 174.624 20.9041L178.728 27.0001H174.408L169.296 18.9601H170.496C171.584 18.9601 172.424 18.6801 173.016 18.1201C173.624 17.5441 173.928 16.8481 173.928 16.0321C173.928 15.2161 173.632 14.5361 173.04 13.9921C172.464 13.4481 171.616 13.1761 170.496 13.1761C170.144 13.1761 169.712 13.1921 169.2 13.2241V27.0001Z" fill="#4E5567"/>
<path d="M180.716 10.2001H184.364V27.0001H180.716V10.2001Z" fill="#4E5567"/>
<path d="M191.09 27.0001H187.442V10.2001H189.41L198.242 19.8241V10.2001H201.89V27.0001H199.922L191.09 17.3521V27.0001Z" fill="#4E5567"/>
<path d="M204.566 18.6961C204.566 16.1041 205.422 13.9921 207.134 12.3601C208.846 10.7281 211.022 9.91211 213.662 9.91211C215.278 9.91211 216.79 10.0961 218.198 10.4641V14.1121C217.702 13.9041 217.046 13.7361 216.23 13.6081C215.414 13.4641 214.686 13.3921 214.046 13.3921C212.254 13.3921 210.87 13.8641 209.894 14.8081C208.918 15.7521 208.43 17.0561 208.43 18.7201C208.43 20.4481 209.03 21.8001 210.23 22.7761C211.43 23.7361 212.862 24.0561 214.526 23.7361V18.0241H218.198V26.6641C216.678 27.0961 215.07 27.3121 213.374 27.3121C210.958 27.3121 208.886 26.5201 207.158 24.9361C205.43 23.3361 204.566 21.2561 204.566 18.6961Z" fill="#4E5567"/>
<defs>
<linearGradient id="paint0_linear_5304_2162" x1="27.9022" y1="23.1944" x2="41.0558" y2="34.9619" gradientUnits="userSpaceOnUse">
<stop stop-color="#16478F"/>
<stop offset="0.2988" stop-color="#3586FF"/>
<stop offset="1" stop-color="#3DA6FE"/>
</linearGradient>
<linearGradient id="paint1_linear_5304_2162" x1="49.1118" y1="-0.497082" x2="3.53924" y2="38.587" gradientUnits="userSpaceOnUse">
<stop stop-color="#3DA6FE"/>
<stop offset="0.3232" stop-color="#3586FF"/>
<stop offset="0.5127" stop-color="#032F71"/>
<stop offset="0.7541" stop-color="#3586FF"/>
<stop offset="1" stop-color="#3DA6FE"/>
</linearGradient>
<linearGradient id="paint2_linear_5304_2162" x1="26.5604" y1="24.6862" x2="8.69135" y2="6.37384" gradientUnits="userSpaceOnUse">
<stop stop-color="#4290EF"/>
<stop offset="0.2561" stop-color="#0568E1"/>
<stop offset="1" stop-color="#3DA6FE"/>
</linearGradient>
<clipPath id="clip0_5304_2162">
<rect width="51" height="39" fill="white"/>
</clipPath>
</defs>
</svg>
