<svg width="261" height="265" viewBox="0 0 261 265" fill="none" xmlns="http://www.w3.org/2000/svg">
<rect y="30" width="261" height="232" rx="12" fill="#E6F0FC"/>
<path d="M144.537 163.186H116.86V261.699H144.537V163.186Z" fill="white"/>
<mask id="mask0_2012_134" style="mask-type:luminance" maskUnits="userSpaceOnUse" x="45" y="220" width="175" height="43">
<path d="M219.848 220L45.0684 220.031L45 262.016L219.78 261.985L219.848 220Z" fill="white"/>
</mask>
<g mask="url(#mask0_2012_134)">
<path d="M192.721 294.509C204.839 294.506 214.678 284.677 214.699 272.554C214.719 260.431 204.912 250.606 192.795 250.609C180.677 250.611 170.838 260.441 170.817 272.564C170.797 284.686 180.604 294.512 192.721 294.509Z" fill="white"/>
</g>
<mask id="mask1_2012_134" style="mask-type:luminance" maskUnits="userSpaceOnUse" x="44" y="220" width="176" height="43">
<path d="M219.633 220.445H44.9384V262.494H219.633V220.445Z" fill="white"/>
</mask>
<g mask="url(#mask1_2012_134)">
<path d="M151.779 284.364C168.544 284.364 182.135 270.745 182.135 253.945C182.135 237.145 168.544 223.526 151.779 223.526C135.014 223.526 121.423 237.145 121.423 253.945C121.423 270.745 135.014 284.364 151.779 284.364Z" fill="white"/>
</g>
<mask id="mask2_2012_134" style="mask-type:luminance" maskUnits="userSpaceOnUse" x="43" y="222" width="176" height="43">
<path d="M218.007 222L43.0804 222.012L43 264.03L217.927 264.018L218.007 222Z" fill="white"/>
</mask>
<g mask="url(#mask2_2012_134)">
<path d="M67.5634 296.474C79.6846 296.473 89.5299 286.647 89.5535 274.527C89.5771 262.407 79.77 252.583 67.6488 252.584C55.5276 252.585 45.6824 262.412 45.6588 274.531C45.6352 286.651 55.4423 296.475 67.5634 296.474Z" fill="white"/>
</g>
<mask id="mask3_2012_134" style="mask-type:luminance" maskUnits="userSpaceOnUse" x="44" y="220" width="176" height="43">
<path d="M219.633 220.445H44.9384V262.494H219.633V220.445Z" fill="white"/>
</mask>
<g mask="url(#mask3_2012_134)">
<path d="M110.511 284.364C127.276 284.364 140.867 270.745 140.867 253.945C140.867 237.145 127.276 223.526 110.511 223.526C93.7458 223.526 80.1551 237.145 80.1551 253.945C80.1551 270.745 93.7458 284.364 110.511 284.364Z" fill="white"/>
</g>
<path d="M211.201 75.7071C209.415 75.7071 207.828 76.403 206.637 77.5959C204.653 71.8302 199.396 67.7545 193.245 67.7545C185.309 67.7545 178.96 74.5142 178.96 82.7651H204.356H207.431H217.847C217.946 78.8882 214.871 75.7071 211.201 75.7071Z" fill="white"/>
<path d="M63.5884 104.237C62.6956 104.237 61.8027 104.535 61.1083 105.032C59.6203 101.752 56.545 99.4655 52.7754 99.4655C47.7161 99.4655 43.6488 103.74 43.6488 109.009H59.0251H61.9019H68.1516C68.1516 106.424 66.1676 104.237 63.5884 104.237Z" fill="white"/>
<path d="M105.848 98.869L91.0673 116.762C86.7024 121.932 84.2224 128.592 84.2224 135.352L81.4447 204.042L109.618 148.772L105.848 98.869Z" fill="#3586FF"/>
<path opacity="0.54" d="M105.848 98.869L101.583 103.939L95.5314 176.506L108.725 150.66L105.848 98.869Z" fill="#599DEF"/>
<path d="M154.259 98.869L169.04 116.762C173.405 121.932 175.885 128.592 175.885 135.352L178.663 204.042L150.489 148.772L154.259 98.869Z" fill="#3586FF"/>
<path opacity="0.54" d="M154.259 98.869L158.525 103.939L164.477 176.506L151.283 150.66L154.259 98.869Z" fill="#599DEF"/>
<path d="M116.761 170.144L112.495 182.67C112.495 182.67 129.359 191.119 148.505 182.57L144.14 170.045L116.761 170.144Z" fill="#090916"/>
<path d="M130.946 0.555026C130.649 0.356211 130.252 0.455619 130.054 0.654434C127.673 3.63666 115.173 21.1324 109.32 64.8717C101.186 126.703 103.269 170.542 103.269 170.542C103.269 170.542 130.351 179.886 157.334 170.343C157.334 170.343 156.541 102.149 150.985 62.7841C146.62 31.6696 135.807 4.1337 130.946 0.555026Z" fill="#6CA7FF"/>
<mask id="mask4_2012_134" style="mask-type:luminance" maskUnits="userSpaceOnUse" x="103" y="0" width="55" height="175">
<path d="M130.946 0.555026C130.649 0.356211 130.252 0.455619 130.054 0.654434C127.673 3.63666 115.173 21.1324 109.32 64.8717C101.186 126.703 103.269 170.542 103.269 170.542C103.269 170.542 130.351 179.886 157.334 170.343C157.334 170.343 156.541 102.149 150.985 62.7841C146.62 31.6696 135.807 4.1337 130.946 0.555026Z" fill="white"/>
</mask>
<g mask="url(#mask4_2012_134)">
<path opacity="0.24" d="M130.45 -1.83081L131.343 183.465L162.493 174.717C162.493 174.816 168.147 21.3311 130.45 -1.83081Z" fill="#F8FAFD"/>
</g>
<path d="M143.471 79.4647C146.431 72.0772 142.855 63.6839 135.482 60.7177C128.11 57.7516 119.734 61.3358 116.774 68.7233C113.814 76.1108 117.391 84.5041 124.763 87.4703C132.136 90.4364 140.511 86.8522 143.471 79.4647Z" fill="#3586FF"/>
<path d="M139.278 78.3852C141.648 73.3139 139.467 67.2775 134.406 64.9026C129.345 62.5276 123.321 64.7135 120.951 69.7848C118.581 74.8561 120.763 80.8924 125.824 83.2674C130.884 85.6423 136.908 83.4565 139.278 78.3852Z" fill="white"/>
<path d="M130.45 96.0857C130.45 96.0857 128.665 101.553 128.268 125.809C127.871 150.064 129.657 209.211 129.657 209.211H132.633L132.534 125.809C132.633 125.709 132.335 105.629 130.45 96.0857Z" fill="#3586FF"/>
</svg>
