<svg width="87" height="23" viewBox="0 0 87 23" fill="none" xmlns="http://www.w3.org/2000/svg">
<g opacity="0.5">
<path d="M81.2 18.9496H74.9C75 20.3496 75.6 20.9496 76.8 20.9496C77.7 20.9496 78.3 20.5496 78.5 19.8496H81.1C80.5 21.7496 79.1 22.7496 77 22.7496C73.9 22.7496 72.4 21.2496 72.4 18.2496C72.4 15.2496 73.8 13.7496 76.9 13.7496C79.8 13.7496 81.3 15.1496 81.3 17.8496C81.3 18.3496 81.2 18.6496 81.2 18.9496ZM76.9 15.6496C75.7 15.6496 75.2 16.1496 75 17.3496H78.7C78.5 16.1496 78 15.6496 76.9 15.6496ZM68.6 17.6496C68.6 16.6496 68.2 16.1496 67.2 16.1496C66.1 16.1496 65.6 16.6496 65.6 17.9496V22.5496H63.1V17.6496C63.1 16.6496 62.7 16.1496 61.7 16.1496C60.6 16.1496 60.1 16.6496 60.1 17.9496V22.5496H57.6V14.1496L59.6 14.0496L59.8 15.1496C60.2 14.4496 61.1 13.9496 62.2 13.9496C63.6 13.9496 64.5 14.4496 65 15.4496C65.5 14.4496 66.4 13.9496 67.8 13.9496C70 13.9496 71.1 15.1496 71.1 17.6496V22.6496H68.6V17.6496ZM49.7 18.9496C49.8 20.3496 50.4 20.9496 51.6 20.9496C52.5 20.9496 53.1 20.5496 53.3 19.8496H55.9C55.3 21.7496 53.9 22.7496 51.8 22.7496C48.7 22.7496 47.2 21.2496 47.2 18.2496C47.2 15.2496 48.6 13.7496 51.7 13.7496C54.6 13.7496 56.1 15.1496 56.1 17.8496C56.1 18.1496 56.1 18.4496 56 18.8496C55.9 18.9496 49.7 18.9496 49.7 18.9496ZM51.6 15.6496C50.4 15.6496 49.9 16.1496 49.7 17.3496H53.4C53.3 16.1496 52.7 15.6496 51.6 15.6496ZM43.3 17.6496C43.3 16.5496 42.9 16.1496 41.8 16.1496C40.5 16.1496 40 16.6496 40 17.9496V22.5496H37.5V10.8496H40V15.0496C40.4 14.3496 41.3 13.9496 42.4 13.9496C44.7 13.9496 45.8 15.1496 45.8 17.6496V22.6496H43.2C43.3 22.5496 43.3 17.6496 43.3 17.6496ZM30.9 19.1496V16.4496H29.7V14.6496L30.9 14.1496V12.3496H33.4V14.1496H35.9V16.4496H33.4V18.9496C33.4 19.9496 33.7 20.2496 34.7 20.2496H35.8V22.5496H34.4C31.8 22.5496 30.9 21.6496 30.9 19.1496ZM25.8 17.5496C28.2 17.9496 28.9 18.5496 28.9 20.1496C28.9 21.7496 27.3 22.8496 24.9 22.8496C22.3 22.8496 20.7 21.8496 20.5 19.9496H23.1C23.3 20.6496 23.9 21.0496 24.9 21.0496C25.8 21.0496 26.4 20.6496 26.4 20.1496C26.4 19.5496 26.1 19.4496 25.1 19.2496L23.5 19.0496C21.5 18.7496 20.7 18.0496 20.7 16.7496C20.7 15.1496 22.3 14.0496 24.6 14.0496C27.1 14.0496 28.6 15.0496 28.8 16.7496H26.2C26.1 16.0496 25.5 15.7496 24.6 15.7496C23.8 15.7496 23.3 16.1496 23.3 16.6496C23.3 17.0496 23.6 17.2496 24.4 17.4496C24.4 17.3496 25.8 17.5496 25.8 17.5496ZM15.4 22.8496C13.1 22.8496 12 21.7496 11.6 19.0496L10.9 14.2496H13.4L14.1 18.9496C14.3 20.1496 14.6 20.5496 15.4 20.5496C16.1 20.5496 16.5 20.1496 16.7 18.9496L17.4 14.2496H20L19.2 19.0496C18.7 21.7496 17.7 22.8496 15.4 22.8496ZM7.5 22.5496L5.8 20.0496L4.1 22.5496H1L4 18.3496L1.1 14.1496H4.2L5.8 16.6496L7.4 14.1496H10.5L7.6 18.2496L10.6 22.4496L7.5 22.5496Z" fill="#7E879D"/>
<path d="M86.1 20.3496H83.3V22.8496H86.1V20.3496Z" fill="#28E98C"/>
<path d="M4.40005 0.149902H1.30005V7.1499H4.40005C6.60005 7.1499 7.50005 6.1499 7.50005 3.6499C7.50005 1.1499 6.60005 0.149902 4.40005 0.149902ZM4.40005 5.6499H3.00005V1.5499H4.40005C5.50005 1.5499 6.00005 2.0499 6.00005 3.5499C5.90005 5.1499 5.50005 5.6499 4.40005 5.6499ZM10.9 1.9499C9.10005 1.9499 8.20005 2.7499 8.20005 4.6499C8.20005 6.4499 9.10005 7.3499 11 7.3499C12.3 7.3499 13.1 6.7499 13.5 5.6499H12C11.9 6.0499 11.5 6.2499 11 6.2499C10.3 6.2499 9.90005 5.8499 9.80005 5.0499H13.5V4.4499C13.5 2.8499 12.6 1.9499 10.9 1.9499ZM9.70005 4.0499C9.80005 3.3499 10.1 3.0499 10.8 3.0499C11.5 3.0499 11.8 3.3499 11.9 4.0499H9.70005ZM17.1 4.1499L16.2 4.0499C15.7 3.9499 15.5 3.8499 15.5 3.5499C15.5 3.2499 15.8 3.0499 16.3 3.0499C16.9 3.0499 17.2 3.2499 17.3 3.5499H18.8C18.7 2.5499 17.8 1.9499 16.3 1.9499C14.9 1.9499 14 2.5499 14 3.5499C14 4.3499 14.5 4.7499 15.7 4.9499L16.7 5.1499C17.3 5.2499 17.4 5.3499 17.4 5.6499C17.4 5.9499 17.1 6.1499 16.5 6.1499C15.9 6.1499 15.5 5.9499 15.4 5.5499H14C14.1 6.6499 15.1 7.2499 16.6 7.2499C18 7.3499 19 6.6499 19 5.6499C19 4.7499 18.6 4.3499 17.1 4.1499ZM19.8 7.1499H21.3V2.1499H19.8V7.1499ZM19.7001 1.4499H21.4V0.249902H19.7001V1.4499ZM24.8 1.9499C23 1.9499 22.2001 2.7499 22.2001 4.3499C22.2001 5.9499 23.1 6.7499 24.8 6.7499C25.1 6.7499 25.4 6.7499 25.6 6.6499C25.8001 6.7499 25.9 6.9499 25.9 7.2499C25.9 7.7499 25.6 8.0499 24.9 8.0499C24.1 8.0499 23.8001 7.8499 23.7001 7.1499H22.2001C22.2001 8.5499 23.1 9.3499 25 9.3499C26.6 9.3499 27.5 8.6499 27.5 7.4499C27.5 6.7499 27.2001 6.2499 26.7001 6.0499C27.2001 5.8499 27.5 5.2499 27.5 4.4499C27.5 4.0499 27.5 3.7499 27.3 3.4499L27.8 3.3499V2.1499H26C25.6 2.0499 25.2 1.9499 24.8 1.9499ZM24.8 5.4499C24 5.4499 23.7001 5.1499 23.7001 4.3499C23.7001 3.5499 24 3.2499 24.8 3.2499C25.6 3.2499 25.9 3.5499 25.9 4.3499C25.9 5.1499 25.6 5.4499 24.8 5.4499ZM31.5 1.9499C30.8 1.9499 30.2001 2.2499 30 2.6499L29.9 2.0499L28.5 2.1499V7.1499H30V4.4499C30 3.6499 30.3 3.3499 31 3.3499C31.7001 3.3499 31.9 3.5499 31.9 4.2499V7.1499H33.4001V4.1499C33.5 2.7499 32.9 1.9499 31.5 1.9499ZM37 1.9499C35.2001 1.9499 34.3 2.7499 34.3 4.6499C34.3 6.4499 35.2 7.3499 37.1 7.3499C38.4 7.3499 39.2 6.7499 39.6 5.6499H38C37.9001 6.0499 37.5 6.2499 37 6.2499C36.3 6.2499 35.9 5.8499 35.8 5.0499H39.5V4.4499C39.6 2.8499 38.7001 1.9499 37 1.9499ZM35.8 4.0499C35.9 3.3499 36.2001 3.0499 36.9001 3.0499C37.6001 3.0499 37.9001 3.3499 38 4.0499H35.8ZM43.9001 2.4499C43.6001 2.1499 43.1 1.9499 42.5 1.9499C40.9001 1.9499 40.1 2.8499 40.1 4.6499C40.1 6.4499 40.9001 7.3499 42.7001 7.3499C44.5 7.3499 45.3 6.5499 45.3 4.6499V0.149902H43.8V2.4499H43.9001ZM42.8 5.9499C42 5.9499 41.7001 5.5499 41.7001 4.6499C41.7001 3.7499 42 3.3499 42.8 3.3499C43.6 3.3499 43.9001 3.7499 43.9001 4.6499C43.9001 5.5499 43.6 5.9499 42.8 5.9499ZM48.7001 1.4499H50.4001V0.249902H48.7001V1.4499ZM48.8 7.1499H50.3V2.1499H48.8V7.1499ZM54.4001 1.9499C53.7001 1.9499 53.1001 2.2499 52.9001 2.6499L52.8 2.0499L51.5 2.1499V7.1499H53V4.4499C53 3.6499 53.3 3.3499 54 3.3499C54.7001 3.3499 54.9001 3.5499 54.9001 4.2499V7.1499H56.4001V4.1499C56.5 2.7499 55.8001 1.9499 54.4001 1.9499Z" fill="#7E879D"/>
</g>
</svg>
