<svg width="32" height="32" viewBox="0 0 32 32" fill="none" xmlns="http://www.w3.org/2000/svg">
<g clip-path="url(#clip0_2041_1301)">
<path d="M6.8998 16C6.8998 15 7.0998 14 7.3998 13L1.9998 8.90002C0.899805 11 0.299805 13.5 0.299805 16C0.299805 18.5 0.899805 21 1.8998 23.1L7.3998 19C7.0998 18 6.8998 17 6.8998 16Z" fill="#FBBC05"/>
<path d="M16.4 6.5C18.7 6.5 20.7 7.3 22.3 8.6L26.9 4C24.1 1.5 20.4 0 16.3 0C10 0 4.6 3.6 2 8.9L7.4 13C8.6 9.3 12.2 6.5 16.4 6.5Z" fill="#EA4335"/>
<path d="M16.4 25.5C12.2 25.5 8.7 22.8 7.4 19L2 23.1C4.6 28.4 10 32 16.4 32C20.3 32 24 30.6 26.8 28L21.7 24C20.2 25 18.4 25.5 16.4 25.5Z" fill="#34A853"/>
<path d="M31.7004 16C31.7004 15.1 31.6004 14 31.3004 13.1H16.4004V19.3H25.0004C24.6004 21.4 23.4004 23 21.7004 24.1L26.8004 28.1C29.7004 25.3 31.7004 21.2 31.7004 16Z" fill="#4285F4"/>
</g>
<defs>
<clipPath id="clip0_2041_1301">
<rect width="32" height="32" fill="white"/>
</clipPath>
</defs>
</svg>
